<?xml version="1.0" encoding="UTF-8" standalone="no"?>
<!-- Generator: Adobe Illustrator 27.7.0, SVG Export Plug-In . SVG Version: 6.00 Build 0)  -->

<svg
   version="1.1"
   id="Layer_1"
   x="0px"
   y="0px"
   viewBox="0 0 382563.4 93787.164"
   xml:space="preserve"
   sodipodi:docname="cimmyt-square.svg"
   width="382563.41"
   height="93787.164"
   xmlns:inkscape="http://www.inkscape.org/namespaces/inkscape"
   xmlns:sodipodi="http://sodipodi.sourceforge.net/DTD/sodipodi-0.dtd"
   xmlns="http://www.w3.org/2000/svg"
   xmlns:svg="http://www.w3.org/2000/svg"><defs
   id="defs105" /><sodipodi:namedview
   id="namedview105"
   pagecolor="#ffffff"
   bordercolor="#000000"
   borderopacity="0.25"
   inkscape:showpageshadow="2"
   inkscape:pageopacity="0.0"
   inkscape:pagecheckerboard="0"
   inkscape:deskcolor="#d1d1d1"><inkscape:page
     x="0"
     y="0"
     width="382563.41"
     height="93787.164"
     id="page2"
     margin="0"
     bleed="0" /></sodipodi:namedview>
<style
   type="text/css"
   id="style1">
	.st0{fill:#FFFFFF;}
</style>
<g
   id="g105"
   transform="translate(-93577.236,-101923.29)">
	<g
   id="g12">
		<g
   id="g1">
			<path
   class="st0"
   d="m 530.6,217.7 c -1.4,-1.8 -4.8,-4.8 -6.6,-6.6 -2.7,-2.7 -3.4,-3.6 -3.4,-8.2 l 0.1,-19.9 c 0,-2.8 -4.4,-2.5 -4.4,0.1 0,0 -0.5,34.6 -0.2,37.5 0.3,2.9 -1.2,5.2 3.5,8.2 5.2,3.3 12.7,5.5 12.7,5.5 0,0 0.1,-7.6 0.3,-10.5 0.1,-2.7 -0.6,-4.3 -2,-6.1 m -2.3,10.8 c 0,0 0,0 0,0 -7.3,-3 -8.6,-2.4 -7.6,-13.5 8.6,5.3 8,7.3 7.6,13.5"
   id="path1" />
		</g>
		<g
   id="g3">
			<path
   class="st0"
   d="m 536.9,223.9 c 0.1,2.8 0.2,10.5 0.2,10.5 0,0 7.5,-2.1 12.7,-5.4 4.7,-3 3.3,-5.3 3.6,-8.2 0.3,-2.9 0.2,-37.5 0.2,-37.5 0,-2.5 -4.4,-3 -4.4,-0.1 l -0.1,19.9 c 0,4.7 -0.7,5.5 -3.5,8.2 -1.8,1.8 -5.2,4.7 -6.6,6.6 -1.5,1.6 -2.2,3.2 -2.1,6 m 11.9,-8.8 c 0.9,11.1 -0.4,10.5 -7.7,13.4 0,0 0,0 0,0 -0.3,-6.2 -0.9,-8.1 7.7,-13.4"
   id="path2" />
			<path
   class="st0"
   d="m 540.6,197.5 c -2.5,-4.5 0,0 -3.5,-5.9 l 0.1,-21.9 c 0,-3.4 -4.3,-3.2 -4.3,0 v 21.9 c 0,0 -3.7,6.2 -4.8,8.7 -1,2.5 -2.4,5.4 1,9.4 0.3,0.3 0.7,1.2 5.8,6 l 0.1,-0.1 c 0,0 0,0 4.5,-4.5 5.6,-5.5 3.7,-9 1.1,-13.6 m -5.7,12.8 c -8.4,-4.5 -2.3,-10.6 0.1,-14.6 l 0.2,0.3 c 6.1,9.3 4.5,10.6 -0.3,14.3"
   id="path3" />
		</g>
		<g
   id="g11">
			<path
   class="st0"
   d="m 532.2,244.5 c -0.2,-4.3 -1.7,-8.1 -10.5,-11.5 -7.4,-2.8 -17.9,-3.5 -25.5,-4.7 -7.6,-1.3 -20.2,-3.4 -26.5,-9.5 4.7,15.8 16.5,22.4 28.5,25 13.6,3 25.9,4.3 33.3,9.5 l 0.8,0.5 c -0.5,-3.5 0.1,-5 -0.1,-9.3 m -3.8,2.1 c -6.5,-2.5 -10.9,-3.2 -22.6,-5.6 -11.7,-2.4 -18.8,-4.6 -25.1,-11.3 10.2,4 26.5,5.5 35.4,7.4 8.9,1.9 11.4,4.2 12.3,9.5 z"
   id="path4" />
			<path
   class="st0"
   d="m 536.9,254 0.8,-0.5 c 7.5,-5.1 19.7,-6.3 33.4,-9.2 12.1,-2.5 24,-9.1 28.8,-24.8 -6.3,6 -19,8 -26.6,9.2 -7.6,1.2 -18.1,1.7 -25.5,4.5 -8.8,3.3 -10.4,7.1 -10.6,11.4 -0.4,4.2 0.1,5.7 -0.3,9.4 m 3.9,-7.4 c 1,-5.3 3.4,-7.6 12.3,-9.4 8.9,-1.8 25.3,-3.2 35.5,-7.1 -6.4,6.7 -13.4,8.8 -25.2,11.1 -11.7,2.3 -16.1,3 -22.6,5.4 z"
   id="path5" />
			<path
   class="st0"
   d="m 531.6,264.5 c 0.1,-8.5 -4.7,-10.9 -11.9,-12.8 -7.2,-1.9 -17.3,-3.4 -25.9,-5.9 -8.6,-2.5 -13.3,-4.2 -19.1,-10.5 1.2,12.3 9.7,21 20.3,24.7 10.5,3.8 10,3 15.7,4.5 5.7,1.5 6.7,3.5 6.7,7.1 v 7.2 l 14.2,0.1 c 0.3,-16.4 -0.1,-5.9 0,-14.4 m -4.1,9.8 h -5.8 c 0,0 0.1,-2.4 -0.2,-6.5 -0.4,-5.4 -6.8,-5.9 -17.2,-8.9 -7.1,-2 -16.4,-4.6 -20.6,-11.8 2.5,1.1 7.6,3.3 15.9,5 7.9,1.7 12.4,2.6 19.6,4.1 6.9,1.5 8.2,5.7 8.2,10.4 z"
   id="path6" />
			<path
   class="st0"
   d="m 537.1,279 14.2,0.1 v -7.2 c 0,-3.5 1.1,-5.6 6.8,-7 5.7,-1.4 5.1,-0.6 15.7,-4.3 10.6,-3.7 19.2,-12.3 20.5,-24.6 -5.8,6.3 -10.6,7.9 -19.2,10.3 -8.6,2.4 -18.7,3.8 -25.9,5.7 -7.2,1.9 -12.1,4.2 -12,12.7 0,8.4 -0.3,-2.1 -0.1,14.3 m 4.2,-12.3 c 0,-4.7 1.4,-8.9 8.3,-10.3 7.3,-1.5 11.8,-2.4 19.7,-4 8.3,-1.7 13.4,-3.8 15.9,-4.9 -4.2,7.1 -13.5,9.7 -20.7,11.6 -10.4,2.8 -16.8,3.3 -17.2,8.7 -0.3,4.1 -0.2,6.5 -0.2,6.5 h -5.8 z"
   id="path7" />
			<path
   class="st0"
   d="m 502.7,318.4 c -1.8,0.4 -3.8,0.8 -5.7,0.8 -8.1,0 -13.6,-4.1 -13.6,-12.5 0,-8.5 5.3,-13.3 13.7,-13.2 1.6,0 3.8,0.3 5.6,1.1 l -0.4,4.2 c -1.9,-1.1 -3.6,-1.3 -5.4,-1.3 -5.1,0 -8.4,3.9 -8.4,9 0,5.1 3.1,8.9 8.4,8.9 2,0 4.3,-0.4 5.5,-1 z"
   id="path8" />
			<path
   class="st0"
   d="m 525.9,298.8 c -1.9,-0.9 -4.4,-1.3 -6.4,-1.4 -5.8,0 -9,3.9 -9.1,9 0,5.1 3.1,8.9 8.4,8.9 1.4,0 2.4,-0.1 3.3,-0.3 v -6.5 h -5.3 v -3.9 h 10.1 L 527,318 c -2.6,0.7 -5.4,1.3 -8.1,1.2 -8.1,0 -13.6,-4.1 -13.6,-12.5 0,-8.5 5.3,-13.3 13.7,-13.2 2.9,0 5.2,0.4 7.3,1.1 z"
   id="path9" />
			
				<rect
   x="521.79999"
   y="304"
   transform="matrix(0.0044296,-1,1,0.0044296,225.4812,839.3841)"
   class="st0"
   width="24.9"
   height="5"
   id="rect9" />
			<path
   class="st0"
   d="m 555.6,309.4 h -7.3 l 3.6,-10.3 h 0.1 z m -16.1,9.5 h 5.2 l 2.2,-5.7 H 557 l 2.1,5.7 h 5.5 L 554.9,294 h -5.6 z"
   id="path10" />
			<path
   class="st0"
   d="m 572.5,298.1 h 1.6 c 2.5,0 5.3,0.3 5.3,3.3 0,3.1 -2.8,3.4 -5.3,3.4 h -1.6 z m -5.1,21 h 5 v -10.3 h 1.6 c 2.1,0 2.7,0.7 3.4,2.6 l 3,7.8 h 5.6 l -3.9,-9.8 c -0.5,-1.1 -1.3,-2.5 -2.6,-2.6 v -0.1 c 3.2,-0.4 5.1,-2.8 5.2,-5.8 0,-6.9 -6.3,-6.8 -11.7,-6.8 h -5.4 z"
   id="path11" />
		</g>
	</g>
	<g
   id="g14">
		<g
   id="g13">
			<polygon
   class="st0"
   points="437.4,321.1 435.7,321.1 436.3,167.3 438.1,167.3 "
   id="polygon12" />
		</g>
	</g>
	<g
   id="g104">
		<g
   id="g100">
			<g
   id="g15">
				<path
   class="st0"
   d="m 251.5,209.7 v -42.4 h 1.9 v 42.3 0.1 l 0.1,12.9 -0.5,5.3 c 0,0 -0.5,3.7 -2.6,5.8 0,0 -1.4,1.7 -2.9,3 -1.5,1.3 -2,3 -2,3 l -0.4,3 3.2,-4.3 c 3.3,-3.4 6.3,-6.3 6.8,-11.4 l 0.1,-1.6 v -58 h 1.9 v 60.6 0.6 c 0,0 -0.3,8.3 -3.4,15.7 0,0 -1.3,2.6 -2.6,4.8 -1.7,2.8 -3.9,4.3 -5.8,8.6 l -0.2,2.9 -2.5,0.1 -0.2,-6 c 0,0 -0.3,-1.1 -0.5,-3.1 -0.2,-2 -1.2,-3.7 -1.2,-3.7 l -0.2,-0.3 c -10.9,-12.9 -9.8,-24.2 -9.8,-24.2 l -0.1,-1.8 v -54.2 h 1.7 l 0.1,49.2 0.2,3.3 c 0,0 -0.4,4.1 2.5,7.3 2.1,2.2 2.2,2.1 3.9,4.1 1.6,1.9 2.6,4.4 2.6,4.4 l 0.1,-2.4 -0.8,-2.4 -1.3,-1.7 c -6.3,-5.3 -5.4,-12.1 -5.4,-12.1 l -0.1,-49.8 h 1.7 V 202 l 0.5,3 c 0,0 1.3,4 2.6,7.2 2.2,5.2 3.8,8.3 3.8,8.3 0,0 -0.2,-4.3 -0.8,-5.3 -0.6,-1.1 -1.7,-3.6 -1.7,-3.6 -1.4,-3.5 -2,-6.5 -2,-6.5 l -0.6,-2.4 -0.1,-1.9 v -33.4 h 1.7 c 0,0 0,19.2 0,21.5 0,4 1,5.5 1.6,6.9 0.7,1.5 1.4,4.2 1.4,4.2 0,0 0.5,-1.6 -0.7,-6.7 -0.3,-1.3 -0.6,-6.1 -0.6,-6.1 v -19.8 h 1.7 v 13.1 c 0,0 0.6,5.6 1.1,4.1 0.6,-1.5 0.7,-3.2 0.7,-3.2 v -14.1 h 1.8 v 30.1 c 0,0 -0.2,3.8 -1,6.2 -0.9,2.8 -0.5,4.6 -0.5,4.6 0,0 1,-1.2 1.8,-3.9 0.4,-1.3 1.4,-5.3 1.4,-5.3 v -31.6 h 1.8 V 209 c 0,0 -0.5,3.5 -2.2,8.5 -1.2,3.5 -1.8,4.2 -2.1,5.4 -0.3,1.8 -0.2,3.5 -0.2,3.5 l 2.4,-5.5 c 0.6,-1.2 1.4,-2.9 1.4,-2.9 0,0 0.6,-1.4 1.4,-3.9 z"
   id="path14" />
			</g>
			<g
   id="g16">
				<path
   class="st0"
   d="m 276.6,200.6 c 0.6,0.2 1.2,0.6 1.7,1.2 0.2,0.3 0.4,0.7 0.5,1.2 0.2,1 0.2,1.7 -0.4,2.4 -0.6,0.7 -1.1,0.8 -1.9,0.8 -0.8,0 -1.3,-0.3 -1.9,-0.4 -0.6,-0.1 -1,-0.5 -1.4,-0.8 -0.4,-0.3 -0.6,-0.7 -0.7,-1.5 -0.2,-0.8 -0.1,-1.3 0,-1.9 0.1,-0.6 0.2,-0.9 0.7,-1.2 0.5,-0.3 0.9,-0.3 1.5,-0.3 0.3,0 0.6,0.1 0.9,0.2 z"
   id="path15" />
			</g>
			<g
   id="g17">
				<path
   class="st0"
   d="m 266.6,191.6 c 0.1,0.6 0.1,1.4 0.3,2.2 0.2,1.2 0.4,2 0.4,2.4 0,0.4 0,0.7 -0.4,1 -0.2,0.1 -0.3,0.1 -0.3,0.1 -0.3,-0.1 -0.5,-0.3 -0.6,-0.9 -0.1,-0.7 -0.3,-1.5 -0.3,-2.2 0,-0.8 -0.1,-1.2 0,-2 0,-0.4 0.1,-0.7 0.2,-0.9 0,-0.1 0.1,-0.1 0.3,-0.1 0.3,0.1 0.4,0.2 0.4,0.4"
   id="path16" />
			</g>
			<g
   id="g18">
				<path
   class="st0"
   d="m 266.7,184.4 v 0.7 c 0,0.6 0.1,1.5 0.3,2.5 0.3,1.4 0.4,2.1 0.2,2.7 -0.1,0.1 -0.2,0.3 -0.3,0.4 -0.3,0.2 -0.4,0.2 -0.7,-0.1 -0.3,-0.3 -0.4,-0.9 -0.5,-1.6 l -0.1,-1.2 c -0.1,-1.2 -0.1,-2 0.1,-2.8 0.1,-0.5 0.1,-0.8 0.3,-1.1 0.1,-0.1 0.1,-0.1 0.3,-0.1 0.4,0.1 0.4,0.3 0.4,0.6"
   id="path17" />
			</g>
			<g
   id="g19">
				<path
   class="st0"
   d="m 266.6,198 c 0.1,0.6 0.2,1.4 0.3,2.2 0.2,1.2 0.4,2 0.4,2.4 0,0.4 0,0.7 -0.4,1 -0.2,0.2 -0.3,0.1 -0.3,0.1 -0.3,-0.1 -0.5,-0.3 -0.6,-0.9 -0.1,-0.7 -0.3,-1.5 -0.3,-2.2 0,-0.8 0,-1.2 0,-2 0,-0.4 0.1,-0.7 0.2,-0.9 0,0 0,-0.1 0.3,0 0.2,-0.1 0.3,0 0.4,0.3"
   id="path18" />
			</g>
			<g
   id="g20">
				<path
   class="st0"
   d="m 276.6,194.5 c 0.6,0.2 1.2,0.6 1.7,1.2 0.2,0.3 0.4,0.7 0.5,1.2 0.2,1 0.2,1.7 -0.4,2.4 -0.6,0.7 -1.1,0.8 -1.9,0.8 -0.8,0 -1.3,-0.3 -1.9,-0.4 -0.6,-0.1 -1,-0.5 -1.4,-0.8 -0.4,-0.3 -0.6,-0.7 -0.7,-1.5 -0.2,-0.8 -0.1,-1.3 0,-1.9 0.1,-0.6 0.2,-0.9 0.7,-1.2 0.5,-0.3 0.9,-0.4 1.5,-0.3 0.3,0 0.6,0.1 0.9,0.2 z"
   id="path19" />
			</g>
			<g
   id="g21">
				<path
   class="st0"
   d="m 276.6,212.9 c 0.6,0.2 1.2,0.6 1.7,1.2 0.2,0.3 0.4,0.7 0.5,1.2 0.2,1 0.2,1.7 -0.4,2.4 -0.6,0.7 -1.1,0.8 -1.9,0.8 -0.8,0 -1.3,-0.3 -1.9,-0.4 -0.6,-0.1 -1,-0.5 -1.4,-0.7 -0.4,-0.3 -0.6,-0.7 -0.7,-1.5 -0.2,-0.8 -0.1,-1.3 0,-1.9 0.1,-0.6 0.2,-0.9 0.7,-1.2 0.5,-0.3 0.9,-0.3 1.5,-0.3 0.3,0 0.6,0.1 0.9,0.1 z"
   id="path20" />
			</g>
			<g
   id="g22">
				<path
   class="st0"
   d="m 276.6,206.8 c 0.6,0.2 1.2,0.6 1.7,1.2 0.2,0.3 0.4,0.7 0.5,1.2 0.2,1 0.2,1.7 -0.4,2.4 -0.6,0.7 -1.1,0.8 -1.9,0.8 -0.8,-0.1 -1.3,-0.3 -1.9,-0.4 -0.6,-0.1 -1,-0.4 -1.4,-0.7 -0.4,-0.3 -0.6,-0.7 -0.7,-1.5 -0.2,-0.8 -0.1,-1.3 0,-1.9 0.1,-0.6 0.2,-0.9 0.7,-1.2 0.5,-0.3 0.9,-0.4 1.5,-0.3 0.3,0 0.6,0.1 0.9,0.2 z"
   id="path21" />
			</g>
			<g
   id="g23">
				<path
   class="st0"
   d="m 276.6,225.3 c 0.6,0.2 1.2,0.6 1.7,1.2 0.2,0.3 0.4,0.7 0.5,1.2 0.2,1 0.2,1.7 -0.4,2.4 -0.6,0.7 -1.1,0.8 -1.9,0.8 -0.8,-0.1 -1.3,-0.3 -1.9,-0.4 -0.6,-0.1 -1,-0.4 -1.4,-0.7 -0.4,-0.3 -0.6,-0.7 -0.7,-1.5 -0.2,-0.8 -0.1,-1.3 0,-1.9 0.1,-0.6 0.2,-0.9 0.7,-1.2 0.5,-0.3 0.9,-0.4 1.5,-0.3 0.3,0 0.6,0 0.9,0.1 z"
   id="path22" />
			</g>
			<g
   id="g24">
				<path
   class="st0"
   d="m 276.6,219.1 c 0.6,0.2 1.2,0.6 1.7,1.2 0.2,0.3 0.4,0.7 0.5,1.2 0.2,1 0.2,1.7 -0.4,2.4 -0.6,0.7 -1.1,0.8 -1.9,0.8 -0.8,0 -1.3,-0.2 -1.9,-0.4 -0.6,-0.2 -1,-0.5 -1.4,-0.7 -0.4,-0.3 -0.6,-0.7 -0.7,-1.5 -0.2,-0.8 -0.1,-1.3 0,-1.9 0.1,-0.6 0.2,-0.9 0.7,-1.2 0.5,-0.3 0.9,-0.3 1.5,-0.3 0.3,0 0.6,0.1 0.9,0.1 z"
   id="path23" />
			</g>
			<g
   id="g25">
				<path
   class="st0"
   d="m 276.6,237.6 c 0.6,0.2 1.2,0.6 1.7,1.2 0.2,0.3 0.4,0.7 0.5,1.2 0.2,1 0.2,1.7 -0.4,2.4 -0.6,0.7 -1.1,0.8 -1.9,0.8 -0.8,-0.1 -1.3,-0.3 -1.9,-0.4 -0.6,-0.1 -1,-0.5 -1.4,-0.7 -0.4,-0.3 -0.6,-0.7 -0.7,-1.5 -0.2,-0.8 -0.1,-1.3 0,-1.9 0.1,-0.6 0.2,-0.9 0.7,-1.2 0.5,-0.3 0.9,-0.4 1.5,-0.3 0.3,0 0.6,0.1 0.9,0.2 z"
   id="path24" />
			</g>
			<g
   id="g26">
				<path
   class="st0"
   d="m 276.6,231.4 c 0.6,0.2 1.2,0.6 1.7,1.2 0.2,0.3 0.4,0.7 0.5,1.2 0.2,1 0.2,1.7 -0.4,2.4 -0.6,0.7 -1.1,0.8 -1.9,0.8 -0.8,0 -1.3,-0.3 -1.9,-0.4 -0.6,-0.1 -1,-0.5 -1.4,-0.7 -0.4,-0.3 -0.6,-0.7 -0.7,-1.5 -0.2,-0.8 -0.1,-1.3 0,-1.9 0.1,-0.6 0.2,-0.8 0.7,-1.2 0.5,-0.3 0.9,-0.3 1.5,-0.3 0.3,0 0.6,0.1 0.9,0.2 z"
   id="path25" />
			</g>
			<g
   id="g27">
				<path
   class="st0"
   d="m 276.6,249.9 c 0.6,0.2 1.2,0.6 1.7,1.2 0.2,0.3 0.4,0.7 0.5,1.2 0.2,1 0.2,1.7 -0.4,2.4 -0.6,0.7 -1.1,0.9 -1.9,0.8 -0.8,0 -1.3,-0.3 -1.9,-0.4 -0.6,-0.1 -1,-0.5 -1.4,-0.7 -0.4,-0.3 -0.6,-0.7 -0.7,-1.5 -0.2,-0.8 -0.1,-1.3 0,-1.9 0.1,-0.6 0.2,-0.9 0.7,-1.2 0.5,-0.3 0.9,-0.4 1.5,-0.3 0.3,0 0.6,0.1 0.9,0.2 z"
   id="path26" />
			</g>
			<g
   id="g28">
				<path
   class="st0"
   d="m 276.6,243.8 c 0.6,0.2 1.2,0.6 1.7,1.2 0.2,0.3 0.4,0.7 0.5,1.2 0.2,1 0.2,1.7 -0.4,2.4 -0.6,0.7 -1.1,0.8 -1.9,0.8 -0.8,0 -1.3,-0.3 -1.9,-0.4 -0.6,-0.1 -1,-0.4 -1.4,-0.7 -0.4,-0.3 -0.6,-0.7 -0.7,-1.5 -0.2,-0.8 -0.1,-1.3 0,-1.9 0.1,-0.6 0.2,-0.9 0.7,-1.2 0.5,-0.3 0.9,-0.3 1.5,-0.3 0.3,0 0.6,0.1 0.9,0.2 z"
   id="path27" />
			</g>
			<g
   id="g29">
				<path
   class="st0"
   d="m 276.6,256.1 c 0.6,0.2 1.2,0.6 1.7,1.2 0.2,0.3 0.4,0.7 0.5,1.2 0.2,1 0.2,1.7 -0.4,2.4 -0.6,0.7 -1.1,0.8 -1.9,0.8 -0.8,-0.1 -1.3,-0.3 -1.9,-0.4 -0.6,-0.1 -1,-0.4 -1.4,-0.7 -0.4,-0.3 -0.6,-0.7 -0.7,-1.5 -0.2,-0.8 -0.1,-1.3 0,-1.9 0.1,-0.6 0.2,-0.9 0.7,-1.2 0.5,-0.3 0.9,-0.4 1.5,-0.3 0.3,0 0.6,0.1 0.9,0.2 h 0.1 z"
   id="path28" />
			</g>
			<g
   id="g30">
				<path
   class="st0"
   d="m 272.1,201.6 c -0.1,0.5 -0.5,0.8 -0.9,0.9 -0.5,0.1 -0.8,0.1 -1.3,-0.2 -0.5,-0.3 -0.8,-0.5 -1.1,-0.9 -0.3,-0.4 -0.7,-0.8 -1,-1.6 -0.3,-0.7 -0.6,-1.6 -0.4,-2.4 0.1,-0.7 0.6,-1.1 1.1,-1.2 0.5,-0.1 1.2,0.1 1.6,0.5 0.4,0.4 0.8,0.8 1.1,1.1 0.5,0.6 1.2,1.9 1.1,2.9 -0.1,0.4 -0.1,0.6 -0.2,0.9"
   id="path29" />
			</g>
			<g
   id="g31">
				<path
   class="st0"
   d="m 272.1,207.9 c -0.1,0.5 -0.5,0.8 -0.9,0.9 -0.5,0.1 -0.8,0.1 -1.3,-0.2 -0.5,-0.3 -0.8,-0.5 -1.1,-0.9 -0.3,-0.4 -0.7,-0.8 -1,-1.6 -0.3,-0.7 -0.6,-1.6 -0.4,-2.4 0.1,-0.7 0.6,-1.1 1.1,-1.2 0.5,-0.1 1.2,0.1 1.6,0.4 0.4,0.4 0.8,0.8 1.1,1.1 0.5,0.6 1.2,1.9 1.1,2.9 -0.1,0.4 -0.1,0.7 -0.2,1"
   id="path30" />
			</g>
			<g
   id="g32">
				<path
   class="st0"
   d="m 272.1,214.2 c -0.1,0.5 -0.5,0.8 -0.9,0.9 -0.5,0.1 -0.8,0.1 -1.3,-0.2 -0.5,-0.3 -0.8,-0.5 -1.1,-0.9 -0.3,-0.4 -0.7,-0.8 -1,-1.5 -0.3,-0.7 -0.6,-1.6 -0.4,-2.4 0.1,-0.8 0.6,-1.1 1.1,-1.2 0.5,-0.1 1.2,0.1 1.6,0.5 0.4,0.4 0.8,0.8 1.1,1.1 0.3,0.3 0.6,0.8 0.8,1.3 0.2,0.5 0.3,1 0.3,1.5 -0.1,0.3 -0.1,0.6 -0.2,0.9"
   id="path31" />
			</g>
			<g
   id="g33">
				<path
   class="st0"
   d="m 272.1,220.4 c -0.1,0.6 -0.5,0.8 -0.9,0.9 -0.5,0.1 -0.8,0.1 -1.3,-0.2 -0.5,-0.3 -0.8,-0.5 -1.1,-0.9 -0.3,-0.4 -0.7,-0.8 -1,-1.5 -0.3,-0.7 -0.6,-1.6 -0.4,-2.4 0.1,-0.8 0.6,-1.1 1.1,-1.2 0.5,-0.1 1.2,0.1 1.6,0.4 0.4,0.4 0.8,0.8 1.1,1.1 0.5,0.6 1.2,1.8 1.1,2.9 -0.1,0.3 -0.1,0.6 -0.2,0.9"
   id="path32" />
			</g>
			<g
   id="g34">
				<path
   class="st0"
   d="m 272.1,226.7 c -0.1,0.5 -0.5,0.8 -0.9,0.9 -0.5,0.1 -0.8,0.1 -1.3,-0.2 -0.5,-0.3 -0.8,-0.5 -1.1,-0.9 -0.3,-0.4 -0.7,-0.8 -1,-1.6 -0.3,-0.7 -0.6,-1.6 -0.4,-2.4 0.1,-0.8 0.6,-1.1 1.1,-1.2 0.5,-0.1 1.2,0.1 1.6,0.4 0.4,0.4 0.8,0.8 1.1,1.1 0.5,0.6 1.2,1.9 1.1,2.9 -0.1,0.4 -0.1,0.7 -0.2,1"
   id="path33" />
			</g>
			<g
   id="g35">
				<path
   class="st0"
   d="m 272.1,232.9 c -0.1,0.5 -0.5,0.8 -0.9,0.9 -0.5,0.1 -0.8,0.1 -1.3,-0.2 -0.5,-0.3 -0.8,-0.5 -1.1,-0.9 -0.3,-0.3 -0.7,-0.8 -1,-1.6 -0.3,-0.7 -0.6,-1.6 -0.4,-2.4 0.1,-0.8 0.6,-1.1 1.1,-1.2 0.5,-0.1 1.2,0.1 1.6,0.4 0.4,0.4 0.8,0.8 1.1,1.1 0.5,0.6 1.2,1.9 1.1,2.9 -0.1,0.5 -0.1,0.8 -0.2,1"
   id="path34" />
			</g>
			<g
   id="g36">
				<path
   class="st0"
   d="m 272.1,239.2 c -0.1,0.5 -0.5,0.8 -0.9,0.9 -0.5,0.1 -0.8,0.1 -1.3,-0.2 -0.5,-0.3 -0.8,-0.5 -1.1,-0.9 -0.3,-0.3 -0.7,-0.8 -1,-1.6 -0.3,-0.7 -0.6,-1.6 -0.4,-2.4 0.1,-0.7 0.6,-1.1 1.1,-1.2 0.5,-0.1 1.2,0.1 1.6,0.4 0.4,0.4 0.8,0.8 1.1,1.1 0.5,0.6 1.2,1.9 1.1,2.9 -0.1,0.4 -0.1,0.7 -0.2,1"
   id="path35" />
			</g>
			<g
   id="g37">
				<path
   class="st0"
   d="m 272.1,245.5 c -0.1,0.5 -0.5,0.8 -0.9,0.9 -0.5,0.1 -0.8,0.1 -1.3,-0.2 -0.5,-0.3 -0.8,-0.5 -1.1,-0.9 -0.3,-0.4 -0.7,-0.8 -1,-1.6 -0.3,-0.8 -0.6,-1.6 -0.4,-2.4 0.1,-0.7 0.6,-1.1 1.1,-1.2 0.5,-0.1 1.2,0.1 1.6,0.4 0.4,0.4 0.8,0.8 1.1,1.1 0.3,0.3 0.6,0.8 0.8,1.3 0.2,0.5 0.3,1.1 0.3,1.5 -0.1,0.5 -0.1,0.8 -0.2,1.1"
   id="path36" />
			</g>
			<g
   id="g38">
				<path
   class="st0"
   d="m 272.1,251.7 c -0.1,0.5 -0.5,0.8 -0.9,0.9 -0.5,0.1 -0.8,0.1 -1.3,-0.2 -0.5,-0.3 -0.8,-0.5 -1.1,-0.9 -0.3,-0.4 -0.7,-0.8 -1,-1.5 -0.3,-0.8 -0.6,-1.6 -0.4,-2.4 0.1,-0.8 0.6,-1.1 1.1,-1.2 0.5,-0.1 1.2,0.1 1.6,0.4 0.4,0.4 0.8,0.8 1.1,1.1 0.3,0.3 0.6,0.8 0.8,1.4 0.2,0.5 0.3,1.1 0.3,1.5 -0.1,0.4 -0.1,0.6 -0.2,0.9"
   id="path37" />
			</g>
			<g
   id="g39">
				<path
   class="st0"
   d="m 272,257.7 c -0.1,0.5 -0.4,0.8 -0.9,0.9 -0.5,0.1 -0.8,0.1 -1.3,-0.2 -0.5,-0.3 -0.8,-0.5 -1.1,-0.9 -0.3,-0.4 -0.7,-0.8 -1,-1.5 -0.3,-0.8 -0.6,-1.6 -0.4,-2.4 0.1,-0.8 0.6,-1.1 1.1,-1.2 0.5,-0.1 1.2,0.1 1.6,0.4 0.4,0.4 0.8,0.8 1.1,1.1 0.3,0.3 0.6,0.8 0.8,1.3 0.2,0.5 0.4,1 0.3,1.6 0,0.3 -0.1,0.6 -0.2,0.9"
   id="path38" />
			</g>
			<g
   id="g40">
				<path
   class="st0"
   d="m 266.6,204.1 c 0.1,0.6 0.2,1.4 0.3,2.2 0.2,1.3 0.4,2 0.4,2.4 0,0.4 0,0.7 -0.4,1 -0.2,0.1 -0.3,0.1 -0.3,0.1 -0.3,-0.1 -0.5,-0.3 -0.6,-0.9 -0.1,-0.7 -0.3,-1.5 -0.3,-2.2 0,-0.8 0,-1.2 0,-2 0,-0.4 0.1,-0.7 0.2,-0.9 0,-0.1 0,-0.1 0.3,-0.1 0.2,0.1 0.3,0.2 0.4,0.4"
   id="path39" />
			</g>
			<g
   id="g41">
				<path
   class="st0"
   d="m 266.5,210.3 c 0.1,0.6 0.1,1.4 0.3,2.2 0.2,1.2 0.4,2 0.4,2.4 0,0.4 0,0.7 -0.4,1 -0.2,0.1 -0.3,0.1 -0.3,0.1 -0.3,-0.1 -0.5,-0.3 -0.5,-0.9 -0.1,-0.7 -0.3,-1.5 -0.3,-2.2 0,-0.8 0,-1.2 0,-2 0,-0.4 0.1,-0.7 0.2,-0.9 0,0 0,-0.1 0.3,0 0.2,0 0.3,0.1 0.3,0.3"
   id="path40" />
			</g>
			<g
   id="g42">
				<path
   class="st0"
   d="m 266.5,216.5 c 0.1,0.6 0.1,1.4 0.3,2.2 0.2,1.3 0.4,2 0.4,2.4 0,0.4 0,0.7 -0.4,1 -0.2,0.1 -0.3,0.1 -0.3,0.1 -0.3,-0.1 -0.5,-0.3 -0.5,-0.9 -0.1,-0.7 -0.3,-1.5 -0.3,-2.2 0,-0.8 0,-1.2 0,-2 0,-0.4 0.1,-0.7 0.2,-0.9 0,-0.1 0,-0.1 0.3,-0.1 0.2,0.1 0.3,0.2 0.3,0.4"
   id="path41" />
			</g>
			<g
   id="g43">
				<path
   class="st0"
   d="m 266.6,222.7 c 0.1,0.6 0.2,1.4 0.3,2.2 0.2,1.3 0.4,2 0.4,2.4 0,0.4 0,0.7 -0.4,1 -0.2,0.1 -0.3,0.1 -0.3,0.1 -0.3,-0.1 -0.5,-0.3 -0.6,-0.9 -0.1,-0.7 -0.3,-1.5 -0.3,-2.2 0,-0.8 0,-1.2 0,-2 0,-0.4 0.1,-0.7 0.2,-0.9 0,0 0,-0.1 0.3,0 0.2,0 0.3,0.1 0.4,0.3"
   id="path42" />
			</g>
			<g
   id="g44">
				<path
   class="st0"
   d="m 266.5,229 c 0.1,0.6 0.1,1.4 0.3,2.1 0.2,1.3 0.4,2 0.4,2.4 0,0.4 0,0.7 -0.4,0.9 -0.2,0.2 -0.3,0.1 -0.3,0.1 -0.3,-0.1 -0.5,-0.3 -0.5,-0.9 -0.1,-0.7 -0.3,-1.5 -0.3,-2.2 0,-0.8 0,-1.2 0,-2 0,-0.4 0.1,-0.7 0.2,-0.9 0,-0.1 0,-0.1 0.3,-0.1 0.2,0.2 0.3,0.4 0.3,0.6"
   id="path43" />
			</g>
			<g
   id="g45">
				<path
   class="st0"
   d="m 266.6,235.2 c 0.1,0.6 0.2,1.4 0.3,2.1 0.2,1.2 0.4,2 0.5,2.4 0,0.4 0,0.7 -0.4,1 -0.2,0.1 -0.3,0.1 -0.3,0.1 -0.3,-0.1 -0.5,-0.3 -0.6,-0.9 -0.1,-0.7 -0.2,-1.5 -0.3,-2.2 0,-0.8 0,-1.2 0,-2 0,-0.4 0.1,-0.7 0.2,-0.9 0,-0.1 0.1,-0.1 0.3,0 0.2,0.1 0.3,0.2 0.3,0.4"
   id="path44" />
			</g>
			<g
   id="g46">
				<path
   class="st0"
   d="m 266.6,241.6 c 0.1,0.6 0.2,1.4 0.3,2.1 0.2,1.3 0.4,2 0.4,2.4 0,0.4 0,0.7 -0.4,1 -0.2,0.1 -0.3,0.1 -0.3,0.1 -0.3,-0.1 -0.5,-0.3 -0.6,-0.9 -0.1,-0.7 -0.3,-1.5 -0.3,-2.2 0,-0.8 0,-1.2 0,-2 0,-0.4 0.1,-0.7 0.2,-0.9 0,0 0,-0.1 0.3,0 0.2,0.1 0.3,0.2 0.4,0.4"
   id="path45" />
			</g>
			<g
   id="g47">
				<path
   class="st0"
   d="m 266.6,247.9 c 0.1,0.6 0.2,1.4 0.3,2.2 0.2,1.2 0.4,2 0.4,2.4 0,0.4 0,0.7 -0.4,1 -0.2,0.1 -0.3,0.1 -0.3,0.1 -0.3,-0.1 -0.5,-0.3 -0.6,-0.9 -0.1,-0.7 -0.3,-1.5 -0.3,-2.2 0,-0.8 0,-1.2 0,-2 0,-0.4 0.1,-0.7 0.2,-0.9 0,-0.1 0,-0.1 0.3,-0.1 0.2,0.1 0.3,0.2 0.4,0.4"
   id="path46" />
			</g>
			<g
   id="g48">
				<path
   class="st0"
   d="m 272.1,195.6 c -0.1,0.5 -0.5,0.8 -0.9,0.9 -0.5,0.1 -0.8,0.1 -1.3,-0.1 -0.5,-0.3 -0.8,-0.5 -1.1,-0.9 -0.3,-0.4 -0.7,-0.8 -1,-1.6 -0.3,-0.7 -0.6,-1.6 -0.4,-2.4 0.1,-0.7 0.6,-1.1 1.1,-1.2 0.5,-0.1 1.2,0.1 1.6,0.4 0.4,0.4 0.8,0.8 1.1,1.1 0.3,0.3 0.6,0.8 0.8,1.3 0.2,0.5 0.3,1.1 0.3,1.5 -0.1,0.4 -0.1,0.7 -0.2,1"
   id="path47" />
			</g>
			<g
   id="g49">
				<path
   class="st0"
   d="m 282.6,200.3 c 0.6,-0.2 1.3,-0.2 1.8,-0.1 0.5,0.1 1,0.4 1.2,0.8 0.2,0.3 0.3,1 0.3,1.6 0,0.3 0,0.6 -0.1,1 -0.2,0.8 -0.4,1.2 -0.7,1.5 -0.4,0.3 -0.8,0.6 -1.4,0.7 -0.6,0.1 -1.1,0.3 -1.9,0.4 -0.7,0 -1.3,0 -1.9,-0.8 -0.5,-0.7 -0.6,-1.4 -0.3,-2.4 0.2,-1 0.7,-1.5 1.3,-2 0.3,-0.2 0.6,-0.4 0.9,-0.4 z"
   id="path48" />
			</g>
			<g
   id="g50">
				<path
   class="st0"
   d="m 292.1,190.8 c 0.5,-0.2 0.7,0.2 0.7,1.1 0.1,0.9 0.1,1.3 0,2.1 0,0.8 -0.2,1.6 -0.3,2.3 -0.1,0.7 -0.4,0.9 -0.7,1.1 -0.3,0.1 -0.8,-0.3 -0.9,-0.7 -0.1,-0.4 -0.1,-0.9 0.1,-1.3 0.1,-0.5 0.2,-1.1 0.3,-1.8 0.1,-0.7 0.1,-1.5 0.3,-2.1 0,-0.4 0.2,-0.6 0.5,-0.7"
   id="path49" />
			</g>
			<g
   id="g51">
				<path
   class="st0"
   d="m 292.1,184 c 0.2,0 0.3,0 0.3,0.1 0.3,0.3 0.3,0.6 0.3,1.1 0.1,0.7 0.2,1.5 0.1,2.7 l -0.1,1.2 c -0.1,0.8 -0.2,1.3 -0.5,1.6 -0.2,0.3 -0.4,0.3 -0.7,0.1 -0.3,-0.3 -0.4,-0.6 -0.4,-1 0,-0.5 0.1,-1.1 0.3,-2.1 0.2,-1 0.3,-1.9 0.3,-2.5 v -0.8 c 0,-0.1 0.1,-0.3 0.4,-0.4"
   id="path50" />
			</g>
			<g
   id="g52">
				<path
   class="st0"
   d="m 292.1,197.4 c 0.2,-0.1 0.3,0 0.3,0 0.1,0.2 0.1,0.5 0.2,0.9 0.1,0.9 0.1,1.3 0,2 0,0.8 -0.2,1.5 -0.3,2.3 -0.1,0.6 -0.3,0.8 -0.6,0.9 -0.1,0 -0.2,0 -0.3,-0.1 -0.3,-0.3 -0.4,-0.6 -0.4,-1 0.2,-0.9 0.3,-1.7 0.4,-2.4 0.1,-0.8 0.2,-1.5 0.3,-2.2 0.1,-0.2 0.2,-0.3 0.4,-0.4"
   id="path51" />
			</g>
			<g
   id="g53">
				<path
   class="st0"
   d="m 282.6,194.2 c 0.6,-0.2 1.3,-0.2 1.8,-0.1 0.5,0.1 1,0.4 1.2,0.8 0.2,0.3 0.3,1 0.3,1.6 0,0.3 0,0.6 -0.1,1 -0.2,0.8 -0.4,1.2 -0.7,1.5 -0.4,0.3 -0.8,0.6 -1.4,0.8 -0.6,0.1 -1.1,0.3 -1.9,0.4 -0.7,0 -1.3,0 -1.9,-0.8 -0.5,-0.7 -0.6,-1.4 -0.3,-2.5 0.2,-1 0.7,-1.5 1.3,-1.9 0.3,-0.2 0.6,-0.4 0.9,-0.4 z"
   id="path52" />
			</g>
			<g
   id="g54">
				<path
   class="st0"
   d="m 282.6,212.6 c 0.6,-0.2 1.3,-0.2 1.8,-0.1 0.4,0.1 1,0.4 1.2,0.8 0.2,0.4 0.3,1.1 0.3,1.6 0,0.3 0,0.6 -0.1,1 -0.2,0.7 -0.3,1.2 -0.7,1.5 -0.4,0.3 -0.8,0.6 -1.4,0.7 -0.6,0.1 -1.1,0.3 -1.9,0.4 -0.7,0 -1.3,-0.1 -1.9,-0.8 -0.5,-0.7 -0.6,-1.4 -0.3,-2.5 0.2,-1 0.7,-1.5 1.3,-1.9 0.3,-0.2 0.6,-0.3 0.9,-0.4 z"
   id="path53" />
			</g>
			<g
   id="g55">
				<path
   class="st0"
   d="m 282.6,206.5 c 0.6,-0.2 1.3,-0.2 1.8,-0.1 0.4,0.1 1,0.4 1.2,0.7 0.2,0.4 0.3,1.1 0.3,1.6 0,0.3 0,0.6 -0.1,1 -0.2,0.8 -0.3,1.2 -0.7,1.5 -0.4,0.3 -0.8,0.6 -1.4,0.7 -0.6,0.1 -1.1,0.3 -1.9,0.4 -0.7,0 -1.3,0 -1.9,-0.8 -0.5,-0.7 -0.6,-1.4 -0.3,-2.4 0.2,-1 0.7,-1.5 1.3,-2 0.3,-0.2 0.6,-0.3 0.9,-0.4 z"
   id="path54" />
			</g>
			<g
   id="g56">
				<path
   class="st0"
   d="m 282.6,224.9 c 0.6,-0.2 1.3,-0.2 1.8,-0.1 0.5,0.1 1,0.4 1.2,0.8 0.2,0.4 0.3,1.1 0.3,1.6 0,0.3 0,0.6 -0.1,1 -0.2,0.8 -0.3,1.2 -0.7,1.5 -0.4,0.3 -0.8,0.6 -1.4,0.7 -0.6,0.1 -1.1,0.3 -1.9,0.4 -0.7,0.1 -1.3,0 -1.9,-0.8 -0.5,-0.7 -0.6,-1.4 -0.3,-2.4 0.2,-1 0.7,-1.6 1.3,-2 0.3,-0.2 0.6,-0.3 0.9,-0.4 z"
   id="path55" />
			</g>
			<g
   id="g57">
				<path
   class="st0"
   d="m 282.6,218.8 c 0.6,-0.2 1.3,-0.2 1.8,-0.1 0.5,0.1 1,0.4 1.2,0.8 0.2,0.4 0.3,1 0.3,1.6 0,0.3 0,0.6 -0.1,1 -0.2,0.8 -0.4,1.2 -0.7,1.5 -0.4,0.3 -0.8,0.6 -1.4,0.8 -0.6,0.1 -1.1,0.3 -1.9,0.4 -0.7,0 -1.3,0 -1.9,-0.8 -0.5,-0.7 -0.6,-1.4 -0.3,-2.4 0.2,-1 0.7,-1.6 1.3,-2 0.3,-0.2 0.6,-0.3 0.9,-0.4 z"
   id="path56" />
			</g>
			<g
   id="g58">
				<path
   class="st0"
   d="m 282.6,237.3 c 0.6,-0.2 1.3,-0.2 1.8,-0.1 0.5,0.1 1,0.4 1.2,0.8 0.2,0.4 0.3,1.1 0.3,1.6 0,0.3 0,0.6 -0.1,1 -0.2,0.8 -0.4,1.2 -0.7,1.5 -0.4,0.3 -0.8,0.6 -1.4,0.7 -0.6,0.1 -1.1,0.3 -1.9,0.4 -0.7,0 -1.3,-0.1 -1.9,-0.8 -0.5,-0.7 -0.6,-1.4 -0.3,-2.4 0.2,-1 0.7,-1.5 1.3,-2 0.3,-0.2 0.6,-0.3 0.9,-0.4 h 0.1 z"
   id="path57" />
			</g>
			<g
   id="g59">
				<path
   class="st0"
   d="m 282.6,231.1 c 0.6,-0.2 1.3,-0.2 1.8,-0.1 0.5,0.1 1,0.4 1.2,0.8 0.2,0.4 0.3,1 0.3,1.6 0,0.3 0,0.6 -0.1,1 -0.2,0.8 -0.4,1.2 -0.7,1.5 -0.4,0.3 -0.8,0.6 -1.4,0.7 -0.6,0.1 -1.1,0.4 -1.9,0.4 -0.7,0 -1.3,-0.1 -1.9,-0.8 -0.5,-0.7 -0.6,-1.4 -0.3,-2.5 0.2,-1 0.7,-1.5 1.3,-2 0.3,-0.2 0.6,-0.3 0.9,-0.4 z"
   id="path58" />
			</g>
			<g
   id="g60">
				<path
   class="st0"
   d="m 282.6,249.6 c 0.6,-0.2 1.3,-0.2 1.8,-0.1 0.4,0.1 1,0.4 1.2,0.8 0.2,0.4 0.3,1 0.3,1.6 0,0.3 0,0.6 -0.1,1 -0.2,0.8 -0.4,1.2 -0.7,1.5 -0.4,0.3 -0.8,0.6 -1.4,0.7 -0.6,0.1 -1.1,0.3 -1.9,0.4 -0.7,0.1 -1.3,0 -1.9,-0.8 -0.5,-0.7 -0.6,-1.4 -0.3,-2.4 0.2,-1 0.7,-1.6 1.3,-2 0.3,-0.2 0.6,-0.3 0.9,-0.4 z"
   id="path59" />
			</g>
			<g
   id="g61">
				<path
   class="st0"
   d="m 282.6,243.4 c 0.6,-0.2 1.3,-0.2 1.8,-0.1 0.5,0.1 1,0.4 1.2,0.8 0.2,0.3 0.3,1 0.3,1.6 0,0.3 0,0.6 -0.1,1 -0.2,0.8 -0.4,1.2 -0.7,1.5 -0.4,0.3 -0.8,0.6 -1.4,0.7 -0.6,0.1 -1.1,0.3 -1.9,0.4 -0.7,0.1 -1.3,0 -1.9,-0.8 -0.5,-0.7 -0.6,-1.4 -0.3,-2.4 0.2,-1 0.7,-1.5 1.3,-1.9 0.3,-0.2 0.6,-0.3 0.9,-0.4 h 0.1 z"
   id="path60" />
			</g>
			<g
   id="g62">
				<path
   class="st0"
   d="m 282.6,255.7 c 0.6,-0.2 1.3,-0.2 1.8,-0.1 0.4,0.1 1,0.4 1.2,0.8 0.2,0.4 0.3,1 0.3,1.6 0,0.3 0,0.6 -0.1,1 -0.2,0.8 -0.4,1.2 -0.7,1.5 -0.4,0.3 -0.8,0.6 -1.4,0.7 -0.6,0.1 -1.1,0.3 -1.9,0.4 -0.7,0 -1.3,-0.1 -1.9,-0.8 -0.5,-0.7 -0.6,-1.4 -0.3,-2.4 0.2,-1 0.7,-1.5 1.3,-2 0.3,-0.2 0.6,-0.3 0.9,-0.4 z"
   id="path61" />
			</g>
			<g
   id="g63">
				<path
   class="st0"
   d="m 286.1,200.8 c 0,-0.8 0.3,-1.6 0.7,-2.3 0.3,-0.5 0.5,-0.7 0.9,-1.1 0.4,-0.4 0.7,-0.8 1.3,-1 0.6,-0.2 1.1,-0.1 1.5,0.3 0.4,0.4 0.6,1.2 0.4,2 -0.2,0.8 -0.5,1.6 -0.9,2.1 -0.6,0.7 -0.8,1.1 -1.6,1.5 -0.5,0.3 -0.8,0.3 -1.3,0.2 -0.5,-0.1 -0.8,-0.3 -0.9,-0.9 -0.1,-0.3 -0.1,-0.6 -0.1,-0.8"
   id="path62" />
			</g>
			<g
   id="g64">
				<path
   class="st0"
   d="m 286.1,207 c 0,-0.8 0.3,-1.6 0.7,-2.3 0.3,-0.5 0.5,-0.7 0.9,-1.1 0.4,-0.4 0.7,-0.8 1.3,-0.9 0.6,-0.2 1.1,-0.1 1.5,0.3 0.4,0.4 0.6,1.2 0.4,2 -0.2,0.8 -0.5,1.6 -0.9,2.1 -0.6,0.7 -0.8,1.1 -1.6,1.5 -0.5,0.3 -0.8,0.3 -1.3,0.2 -0.5,-0.1 -0.8,-0.4 -0.9,-0.9 -0.1,-0.4 -0.1,-0.6 -0.1,-0.9"
   id="path63" />
			</g>
			<g
   id="g65">
				<path
   class="st0"
   d="m 286.1,213.3 c 0,-0.8 0.3,-1.6 0.7,-2.3 0.3,-0.5 0.5,-0.7 0.9,-1.1 0.4,-0.4 0.7,-0.8 1.3,-1 0.6,-0.2 1.1,-0.1 1.5,0.3 0.4,0.4 0.6,1.2 0.4,2 -0.2,0.8 -0.5,1.6 -0.9,2.1 -0.6,0.7 -0.8,1.1 -1.6,1.5 -0.5,0.3 -0.8,0.3 -1.3,0.2 -0.5,-0.1 -0.8,-0.3 -0.9,-0.9 -0.1,-0.3 -0.1,-0.6 -0.1,-0.8"
   id="path64" />
			</g>
			<g
   id="g66">
				<path
   class="st0"
   d="m 286.1,219.5 c 0,-0.8 0.3,-1.6 0.7,-2.3 0.3,-0.5 0.5,-0.7 0.9,-1.1 0.4,-0.4 0.7,-0.8 1.3,-1 0.6,-0.2 1.1,-0.1 1.5,0.3 0.4,0.4 0.6,1.2 0.4,2 -0.2,0.8 -0.5,1.6 -0.9,2.1 -0.6,0.7 -0.8,1.1 -1.6,1.5 -0.5,0.3 -0.8,0.3 -1.3,0.2 -0.5,-0.1 -0.8,-0.3 -0.9,-0.9 -0.1,-0.2 -0.1,-0.5 -0.1,-0.8"
   id="path65" />
			</g>
			<g
   id="g67">
				<path
   class="st0"
   d="m 286.1,225.8 c 0,-0.8 0.3,-1.6 0.7,-2.3 0.3,-0.5 0.5,-0.7 0.9,-1.1 0.4,-0.4 0.7,-0.8 1.3,-0.9 0.6,-0.2 1.1,-0.1 1.5,0.3 0.4,0.4 0.6,1.2 0.4,2 -0.2,0.8 -0.5,1.6 -0.9,2.1 -0.6,0.7 -0.8,1.1 -1.6,1.5 -0.5,0.3 -0.8,0.3 -1.3,0.2 -0.5,-0.1 -0.8,-0.3 -0.9,-0.9 -0.1,-0.4 -0.1,-0.7 -0.1,-0.9"
   id="path66" />
			</g>
			<g
   id="g68">
				<path
   class="st0"
   d="m 286.1,232.1 c 0,-0.8 0.3,-1.6 0.7,-2.3 0.3,-0.5 0.5,-0.7 0.9,-1.1 0.4,-0.4 0.7,-0.8 1.3,-1 0.6,-0.2 1.1,-0.1 1.5,0.3 0.4,0.4 0.6,1.2 0.4,2 -0.2,0.8 -0.5,1.6 -0.9,2.1 -0.6,0.7 -0.8,1.1 -1.6,1.5 -0.5,0.3 -0.8,0.3 -1.3,0.2 -0.5,-0.1 -0.8,-0.3 -0.9,-0.9 -0.1,-0.3 -0.1,-0.6 -0.1,-0.8"
   id="path67" />
			</g>
			<g
   id="g69">
				<path
   class="st0"
   d="m 286.1,238.3 c 0,-0.8 0.3,-1.6 0.7,-2.3 0.3,-0.5 0.5,-0.7 0.9,-1.1 0.4,-0.4 0.7,-0.8 1.3,-1 0.6,-0.2 1.1,-0.1 1.5,0.3 0.4,0.4 0.6,1.2 0.4,2 -0.2,0.8 -0.5,1.6 -0.9,2.1 -0.6,0.7 -0.8,1.1 -1.6,1.5 -0.5,0.3 -0.8,0.3 -1.3,0.2 -0.5,-0.1 -0.8,-0.4 -0.9,-0.9 -0.1,-0.3 -0.1,-0.5 -0.1,-0.8"
   id="path68" />
			</g>
			<g
   id="g70">
				<path
   class="st0"
   d="m 286.1,244.6 c 0,-0.8 0.3,-1.6 0.7,-2.3 0.3,-0.5 0.5,-0.7 0.9,-1.1 0.4,-0.4 0.7,-0.8 1.3,-0.9 0.6,-0.2 1.1,-0.1 1.5,0.3 0.4,0.4 0.6,1.2 0.4,2 -0.2,0.8 -0.5,1.6 -0.9,2.1 -0.6,0.7 -0.8,1.1 -1.6,1.5 -0.5,0.3 -0.8,0.3 -1.3,0.2 -0.5,-0.1 -0.8,-0.3 -0.9,-0.9 -0.1,-0.4 -0.1,-0.7 -0.1,-0.9"
   id="path69" />
			</g>
			<g
   id="g71">
				<path
   class="st0"
   d="m 286.1,250.8 c 0,-0.8 0.3,-1.6 0.7,-2.3 0.3,-0.5 0.5,-0.8 0.9,-1.1 0.4,-0.4 0.7,-0.8 1.3,-1 0.6,-0.2 1.1,-0.1 1.5,0.3 0.4,0.4 0.6,1.2 0.4,2 -0.2,0.8 -0.5,1.6 -0.9,2.1 -0.6,0.7 -0.8,1.1 -1.6,1.5 -0.5,0.3 -0.8,0.3 -1.3,0.2 -0.5,-0.1 -0.8,-0.3 -0.9,-0.9 -0.1,-0.3 -0.1,-0.5 -0.1,-0.8"
   id="path70" />
			</g>
			<g
   id="g72">
				<path
   class="st0"
   d="m 286.1,256.8 c -0.1,-0.8 0.3,-1.6 0.7,-2.3 0.3,-0.5 0.5,-0.7 0.9,-1.1 0.4,-0.4 0.7,-0.8 1.3,-1 0.6,-0.2 1.1,-0.1 1.5,0.3 0.4,0.4 0.6,1.2 0.4,2 -0.2,0.8 -0.5,1.6 -0.9,2.1 -0.6,0.7 -0.8,1.1 -1.6,1.5 -0.5,0.3 -0.8,0.3 -1.3,0.2 -0.5,-0.1 -0.8,-0.4 -0.9,-0.9 0,-0.3 0,-0.6 -0.1,-0.8"
   id="path71" />
			</g>
			<g
   id="g73">
				<path
   class="st0"
   d="m 292.1,203.7 c 0.2,-0.1 0.3,0 0.3,0 0.1,0.2 0.1,0.5 0.2,0.9 0.1,0.9 0.1,1.3 0,2 0,0.8 -0.2,1.5 -0.3,2.2 -0.1,0.6 -0.3,0.8 -0.6,0.9 0,0 -0.1,0.1 -0.3,-0.1 -0.3,-0.3 -0.4,-0.6 -0.4,-1 0.2,-0.9 0.3,-1.8 0.5,-2.4 0.1,-0.7 0.1,-1.6 0.3,-2.1 -0.1,-0.3 0.1,-0.4 0.3,-0.4"
   id="path72" />
			</g>
			<g
   id="g74">
				<path
   class="st0"
   d="m 292,210 c 0.2,-0.1 0.3,0 0.3,0.1 0.1,0.2 0.1,0.5 0.2,0.9 0.1,0.9 0.1,1.3 0,2 -0.1,0.8 -0.2,1.5 -0.3,2.3 -0.1,0.6 -0.3,0.8 -0.6,0.9 -0.1,0 -0.2,0 -0.3,-0.1 -0.3,-0.3 -0.4,-0.6 -0.4,-1 0.2,-0.9 0.3,-1.7 0.4,-2.4 0.1,-0.7 0.1,-1.5 0.3,-2.1 0.1,-0.4 0.2,-0.5 0.4,-0.6"
   id="path73" />
			</g>
			<g
   id="g75">
				<path
   class="st0"
   d="m 292.1,216 c 0.2,-0.1 0.3,0 0.3,0 0.1,0.2 0.1,0.5 0.2,0.9 0.1,0.9 0.1,1.3 0,2 0,0.8 -0.2,1.5 -0.3,2.2 -0.1,0.6 -0.3,0.8 -0.6,0.9 0,0 -0.1,0.1 -0.3,-0.1 -0.3,-0.3 -0.4,-0.6 -0.4,-1 0.2,-0.9 0.3,-1.8 0.5,-2.4 0.1,-0.8 0.1,-1.5 0.2,-2.2 0.1,-0.1 0.2,-0.2 0.4,-0.3"
   id="path74" />
			</g>
			<g
   id="g76">
				<path
   class="st0"
   d="m 292.1,222.4 c 0.2,-0.1 0.3,0 0.3,0 0.1,0.2 0.1,0.5 0.2,0.9 0.1,0.8 0.1,1.3 0,2 0,0.8 -0.2,1.5 -0.3,2.2 -0.1,0.6 -0.3,0.8 -0.6,0.9 -0.1,0 -0.2,0 -0.3,-0.1 -0.3,-0.3 -0.4,-0.6 -0.4,-1 0.2,-0.9 0.3,-1.7 0.4,-2.4 0.1,-0.8 0.2,-1.5 0.3,-2.1 0.1,-0.3 0.2,-0.4 0.4,-0.4"
   id="path75" />
			</g>
			<g
   id="g77">
				<path
   class="st0"
   d="m 292.1,228.4 c 0.2,-0.1 0.3,0 0.3,0 0.1,0.2 0.1,0.5 0.2,0.9 0.1,0.9 0.1,1.3 0,2.1 0,0.7 -0.2,1.5 -0.3,2.2 -0.1,0.6 -0.3,0.8 -0.6,0.9 -0.1,0 -0.2,0 -0.3,-0.1 -0.3,-0.3 -0.4,-0.6 -0.4,-1 0.2,-0.9 0.3,-1.7 0.4,-2.4 0.1,-0.7 0.2,-1.5 0.3,-2.2 0.1,-0.2 0.2,-0.3 0.4,-0.4"
   id="path76" />
			</g>
			<g
   id="g78">
				<path
   class="st0"
   d="m 292.1,234.8 c 0.2,-0.1 0.3,0 0.3,0 0.1,0.2 0.1,0.5 0.2,0.9 0.1,0.8 0.1,1.3 0,2 0,0.7 -0.2,1.5 -0.3,2.2 -0.1,0.6 -0.3,0.8 -0.6,0.9 -0.1,0 -0.2,0 -0.3,-0.1 -0.3,-0.3 -0.4,-0.6 -0.4,-1 0.2,-0.9 0.3,-1.7 0.4,-2.4 0.1,-0.8 0.2,-1.5 0.3,-2.1 0.1,-0.2 0.2,-0.3 0.4,-0.4"
   id="path77" />
			</g>
			<g
   id="g79">
				<path
   class="st0"
   d="m 292.1,241.1 c 0.2,-0.1 0.3,0 0.3,0.1 0.1,0.2 0.1,0.5 0.2,0.9 0.1,0.9 0.1,1.3 0,2 0,0.8 -0.2,1.5 -0.3,2.2 -0.1,0.6 -0.3,0.8 -0.6,0.9 -0.1,0 -0.2,0 -0.3,-0.1 -0.3,-0.3 -0.4,-0.6 -0.4,-1 0.2,-0.9 0.3,-1.7 0.4,-2.4 0.1,-0.7 0.2,-1.5 0.3,-2.2 0.1,-0.2 0.2,-0.4 0.4,-0.4"
   id="path78" />
			</g>
			<g
   id="g80">
				<path
   class="st0"
   d="m 292.1,247.3 c 0.2,-0.1 0.3,0 0.3,0 0.1,0.2 0.1,0.5 0.2,0.9 0.1,0.9 0.1,1.3 0,2 0,0.7 -0.2,1.5 -0.3,2.2 -0.1,0.6 -0.3,0.8 -0.6,0.9 -0.1,0 -0.2,0 -0.3,-0.1 -0.3,-0.3 -0.4,-0.6 -0.4,-1 0.2,-0.9 0.3,-1.8 0.4,-2.4 0.1,-0.7 0.2,-1.5 0.3,-2.1 0.1,-0.3 0.2,-0.4 0.4,-0.4"
   id="path79" />
			</g>
			<g
   id="g81">
				<path
   class="st0"
   d="m 286.1,194.7 c 0,-0.8 0.3,-1.6 0.7,-2.3 0.3,-0.5 0.5,-0.7 0.9,-1.1 0.4,-0.4 0.7,-0.8 1.3,-0.9 0.6,-0.2 1.1,-0.1 1.5,0.3 0.4,0.4 0.6,1.2 0.4,2 -0.2,0.8 -0.5,1.6 -0.9,2.1 -0.6,0.7 -0.8,1.1 -1.6,1.5 -0.5,0.3 -0.8,0.3 -1.3,0.2 -0.5,-0.1 -0.8,-0.3 -0.9,-0.9 -0.1,-0.4 -0.1,-0.7 -0.1,-0.9"
   id="path80" />
			</g>
			<g
   id="g82">
				<path
   class="st0"
   d="m 272.9,180.5 c 0,0.4 -0.4,0.9 -0.8,1.2 -1,0.8 -2.8,1.9 -4.7,2.3 -0.5,0.1 -1.1,-0.5 -1.3,-0.9 -0.8,-1.4 -0.7,-3.4 -0.3,-4.5 0.3,-0.8 0.9,-1.6 1.6,-1.5 2,0.4 4,1.7 4.7,2.3 0.6,0.6 0.8,0.8 0.8,1.1"
   id="path81" />
			</g>
			<g
   id="g83">
				<path
   class="st0"
   d="m 281.1,186.6 c 0.4,-0.1 1,0.1 1.4,0.4 1.1,0.7 2.7,2.1 3.6,3.8 0.2,0.4 -0.1,1.2 -0.5,1.5 -1.1,1.1 -3,1.7 -4.2,1.6 -0.9,-0.1 -1.8,-0.4 -1.9,-1.1 -0.2,-2.1 0.3,-4.4 0.8,-5.2 0.3,-0.7 0.4,-0.9 0.8,-1"
   id="path82" />
			</g>
			<g
   id="g84">
				<path
   class="st0"
   d="m 277.2,186.6 c 0.4,0.1 0.8,0.6 0.9,1.1 0.4,1.2 0.9,3.3 0.7,5.2 -0.1,0.5 -0.8,0.8 -1.3,1 -1.5,0.3 -3.4,-0.4 -4.3,-1.2 -0.7,-0.6 -1.2,-1.4 -0.9,-2 1,-1.8 2.8,-3.4 3.6,-3.8 0.7,-0.3 0.9,-0.4 1.3,-0.3"
   id="path83" />
			</g>
			<g
   id="g85">
				<path
   class="st0"
   d="m 274.3,184.1 c 0.2,0.3 0.2,1 0.1,1.4 -0.4,1.3 -1.2,3.2 -2.5,4.7 -0.3,0.3 -1.1,0.2 -1.6,0 -1.4,-0.7 -2.5,-2.3 -2.8,-3.5 -0.2,-0.9 -0.2,-1.9 0.4,-2.1 1.9,-0.8 4.2,-1 5.1,-0.9 0.9,0 1.1,0.1 1.3,0.4"
   id="path84" />
			</g>
			<g
   id="g86">
				<path
   class="st0"
   d="m 285.4,180.6 c 0,-0.4 0.4,-0.9 0.8,-1.2 1,-0.8 2.8,-1.9 4.7,-2.2 0.5,-0.1 1,0.5 1.3,1 0.7,1.4 0.6,3.4 0.2,4.5 -0.3,0.8 -1,1.6 -1.6,1.5 -2,-0.5 -4,-1.7 -4.7,-2.4 -0.5,-0.6 -0.7,-0.8 -0.7,-1.2"
   id="path85" />
			</g>
			<g
   id="g87">
				<path
   class="st0"
   d="m 281.2,174.7 c -0.4,-0.1 -0.7,-0.6 -0.9,-1.1 -0.4,-1.2 -0.9,-3.3 -0.7,-5.2 0.1,-0.5 0.8,-0.9 1.3,-0.9 1.5,-0.3 3.4,0.4 4.3,1.2 0.7,0.6 1.2,1.4 0.9,2 -1.1,1.8 -2.8,3.4 -3.7,3.8 -0.7,0.2 -0.9,0.3 -1.2,0.2"
   id="path86" />
			</g>
			<g
   id="g88">
				<path
   class="st0"
   d="m 277.4,174.7 c -0.4,0.1 -1,-0.1 -1.4,-0.3 -1.1,-0.7 -2.7,-2.1 -3.6,-3.8 -0.2,-0.4 0.1,-1.2 0.5,-1.5 1,-1.1 2.9,-1.8 4.1,-1.7 0.9,0.1 1.8,0.4 1.9,1 0.2,2.1 -0.3,4.4 -0.7,5.3 -0.4,0.7 -0.5,0.9 -0.8,1"
   id="path87" />
			</g>
			<g
   id="g89">
				<path
   class="st0"
   d="m 284.2,176.9 c -0.2,-0.3 -0.2,-0.9 -0.1,-1.4 0.4,-1.3 1.2,-3.2 2.5,-4.6 0.3,-0.3 1.1,-0.2 1.6,0 1.4,0.7 2.5,2.3 2.8,3.6 0.2,0.9 0.2,1.9 -0.4,2.1 -1.9,0.8 -4.3,1 -5.1,0.9 -0.8,-0.3 -1,-0.3 -1.3,-0.6"
   id="path88" />
			</g>
			<g
   id="g90">
				<path
   class="st0"
   d="m 284.2,184.2 c 0.2,-0.3 0.8,-0.5 1.3,-0.5 1.3,-0.1 3.4,0.1 5.1,1 0.4,0.2 0.5,1 0.5,1.5 -0.2,1.6 -1.4,3.2 -2.5,3.8 -0.7,0.5 -1.7,0.7 -2.1,0.3 -1.3,-1.6 -2.3,-3.8 -2.4,-4.7 -0.1,-0.8 -0.1,-1 0.1,-1.4"
   id="path89" />
			</g>
			<g
   id="g91">
				<path
   class="st0"
   d="m 274.2,176.9 c -0.2,0.3 -0.8,0.5 -1.3,0.5 -1.3,0.1 -3.4,-0.1 -5.1,-0.9 -0.4,-0.2 -0.6,-1 -0.5,-1.6 0.2,-1.5 1.4,-3.2 2.4,-3.8 0.7,-0.5 1.7,-0.8 2.1,-0.3 1.4,1.5 2.3,3.8 2.5,4.7 0,0.8 0.1,1.1 -0.1,1.4"
   id="path90" />
			</g>
			<g
   id="g92">
				<path
   class="st0"
   d="m 279.3,186.5 c 3.2,0 5.8,-2.6 5.8,-5.9 0,-3.3 -2.6,-5.9 -5.8,-5.9 -3.2,0 -5.8,2.6 -5.8,5.9 0,3.2 2.5,5.9 5.8,5.9"
   id="path91" />
			</g>
			<g
   id="g93">
				<rect
   x="117.9"
   y="274.20001"
   class="st0"
   width="285.39999"
   height="1.3"
   id="rect92" />
			</g>
			<g
   id="g94">
				<path
   class="st0"
   d="m 148.9,317.1 c -3.4,2 -7.4,2.6 -11.3,2.6 -5,0 -10.2,-1.1 -14,-4.5 -3.8,-3.3 -5.5,-8.1 -5.5,-12.9 0,-10.9 9.2,-16.4 19.6,-16.4 4,0 7.3,0.5 11.2,1.8 0.4,0.1 0.9,0.2 0.8,0.9 -0.3,1.5 -0.7,5.2 -0.8,7.3 H 147 c -0.1,-1.4 -0.1,-2.7 -0.3,-4.1 -2.4,-2.4 -5.5,-3.3 -8.8,-3.3 -3.6,0 -7.1,1.3 -9.5,4 -2.2,2.4 -2.9,5.9 -2.9,9.1 0,4 1,7.8 3.9,10.8 3,3.1 6.3,4.1 10.6,4.1 2.9,0 6.9,-1 9.4,-2.4 l 0.6,0.6 z"
   id="path93" />
			</g>
			<g
   id="g95">
				<path
   class="st0"
   d="m 161.5,292.2 c -0.1,-3.4 -0.3,-3.8 -4.2,-3.7 v -2 c 3.3,0.1 5.8,0.2 7.7,0.2 1.9,0 4.4,-0.1 7.6,-0.3 v 2 c -4,-0.1 -4.2,0.2 -4.2,3.7 v 21.3 c 0,3.4 0.2,3.8 4.2,3.7 v 2.1 c -3.2,-0.2 -5.7,-0.3 -7.6,-0.3 -1.9,0 -4.4,0.1 -7.7,0.3 v -2 c 3.9,0.1 4.1,-0.3 4.2,-3.7 z"
   id="path94" />
			</g>
			<g
   id="g96">
				<path
   class="st0"
   d="m 215.1,292.9 -5.3,10.4 -7.2,15.1 -0.5,1.1 h -1.7 c -0.1,-0.4 -1.1,-2.6 -1.8,-3.9 L 187.3,293 v 20.6 c 0,3.4 0.2,3.8 4.2,3.7 v 2.1 c -2.3,-0.2 -4.1,-0.3 -5.5,-0.3 -1.4,0 -3.3,0.1 -5.7,0.3 v -2.1 c 4,0.2 4.2,-0.2 4.2,-3.7 v -21.3 c 0,-3.4 -0.2,-3.8 -4.2,-3.7 v -2 c 2.9,0.1 4.7,0.2 6.1,0.2 1.5,0 3.2,-0.1 5.7,-0.3 0.9,2 2.5,5.7 3.7,7.7 l 7.8,15.7 c 0.8,-1.4 1.5,-2.8 2.2,-4.2 3.6,-7.4 7.9,-16.3 9.2,-19.3 2.4,0.1 4.2,0.2 5.7,0.2 1.5,0 3.3,-0.1 5.7,-0.3 v 2 c -4,-0.1 -4.2,0.2 -4.2,3.7 v 21.3 c 0,3.4 0.2,3.8 4.2,3.7 v 2.1 c -3.3,-0.2 -5.7,-0.3 -7.6,-0.3 -1.9,0 -4.4,0.1 -7.7,0.3 v -2 c 3.9,0.1 4.1,-0.3 4.2,-3.7 z"
   id="path95" />
			</g>
			<g
   id="g97">
				<path
   class="st0"
   d="m 268.4,292.9 -5.3,10.4 -7.2,15.1 -0.5,1.1 h -1.7 c -0.1,-0.4 -1.1,-2.6 -1.8,-3.9 L 240.6,293 v 20.6 c 0,3.4 0.2,3.8 4.2,3.7 v 2.1 c -2.3,-0.2 -4.1,-0.3 -5.6,-0.3 -1.4,0 -3.3,0.1 -5.7,0.3 v -2.1 c 4,0.2 4.2,-0.2 4.2,-3.7 v -21.3 c 0,-3.4 -0.2,-3.8 -4.2,-3.7 v -2 c 2.9,0.1 4.7,0.2 6.1,0.2 1.5,0 3.2,-0.1 5.7,-0.3 0.9,2 2.6,5.7 3.7,7.7 l 7.8,15.7 c 0.8,-1.4 1.5,-2.8 2.1,-4.2 3.6,-7.4 7.9,-16.3 9.2,-19.3 2.4,0.1 4.2,0.2 5.7,0.2 1.5,0 3.2,-0.1 5.7,-0.3 v 2 c -4,-0.1 -4.2,0.2 -4.2,3.7 v 21.3 c 0,3.4 0.2,3.8 4.2,3.7 v 2.1 c -3.2,-0.2 -5.7,-0.3 -7.6,-0.3 -1.9,0 -4.4,0.1 -7.7,0.3 v -2 c 3.9,0.1 4.1,-0.3 4.2,-3.7 z"
   id="path96" />
			</g>
			<g
   id="g98">
				<path
   class="st0"
   d="m 304.6,302 c 3.9,-6.2 7.3,-11.4 9.3,-15.3 h 3.8 v 0.9 l -2,2.7 -5.2,7.7 -2.2,3.4 -1.5,3 c -0.3,0.6 -0.3,1.5 -0.3,2.2 v 6.7 c 0,3.4 0.2,3.8 4.2,3.7 v 2.1 c -3.3,-0.1 -5.7,-0.3 -7.6,-0.3 -1.9,0 -4.4,0.1 -7.7,0.3 v -2 c 3.9,0.1 4.1,-0.3 4.2,-3.7 v -6 c 0,-1 -0.2,-2 -0.4,-2.5 -0.5,-1.1 -1.1,-2 -1.7,-3.1 l -5,-7.8 c -0.8,-1 -1.7,-2.3 -2.6,-3.2 -1.1,-1.2 -2.5,-1.6 -3.8,-1.6 v -1.7 l 7.8,-1.7 c 2.7,1.5 4.2,3.9 5.6,6.4 z"
   id="path97" />
			</g>
			<g
   id="g99">
				<path
   class="st0"
   d="m 342.1,313.5 c 0,3.4 0.2,3.8 4.2,3.7 v 2.1 c -3.3,-0.2 -5.7,-0.3 -7.6,-0.3 -1.9,0 -4.4,0.1 -7.7,0.3 v -2 c 3.9,0.1 4.1,-0.3 4.2,-3.7 V 289.8 H 328 c -1.2,0.1 -1.6,0.5 -2.2,1.5 -0.1,0.8 -0.1,2 -0.3,3.2 h -2 c 0.1,-2.3 -0.2,-5.4 -0.1,-7.9 6.5,0.1 11.5,0.3 15.4,0.3 3.9,0 8.8,-0.1 15.5,-0.3 -0.2,2.1 -0.4,5.1 -0.6,7.9 h -1.9 c 0,-0.7 0,-1.3 -0.1,-2 -0.3,-2.4 0.2,-2.7 -2.6,-2.7 h -6.9 z"
   id="path98" />
			</g>
		</g>
		<g
   id="g103">
			<g
   id="g101">
				<path
   class="st0"
   d="m 383.3,303.6 c -1.1,-0.1 -2.9,-0.3 -4.5,-0.5 -1.1,-0.2 -2,-0.7 -2.8,-1.6 -1.5,-1.5 -1.8,-3.7 -1.6,-5.7 0.5,0 0.7,0 1.4,0 0.4,4.8 3.5,5.7 5.2,5.6 0.2,-3.2 0.5,-5.2 0.5,-9 0.1,-2 -1.1,-1.9 -2.8,-2.1 -1.5,-0.2 -6.4,-0.5 -7.8,-0.6 -0.1,1 -0.4,8.6 -0.5,11.2 0,1 -0.2,2.1 0.5,2.8 0.6,0.6 1.4,0.6 2.3,0.7 1.3,0.1 10.3,0.7 10.8,0.7 z"
   id="path100" />
			</g>
			<g
   id="g102">
				<path
   class="st0"
   d="m 384.9,297.3 c 0.7,-0.9 1.7,-2.3 2.7,-3.6 0.7,-0.8 1.6,-1.3 2.8,-1.6 2,-0.5 4.1,0.3 5.8,1.4 -0.2,0.4 -0.3,0.6 -0.8,1.2 -4.4,-2.1 -6.7,0.2 -7.4,1.7 2.7,1.8 4.3,3 7.6,5 1.6,1.1 2.3,0 3.3,-1.4 0.9,-1.2 3.6,-5.3 4.4,-6.5 -0.8,-0.5 -7.3,-4.6 -9.5,-6 -0.9,-0.5 -1.8,-1.2 -2.6,-1 -0.8,0.2 -1.2,0.9 -1.7,1.6 -0.7,1.1 -5.7,8.6 -6,9 z"
   id="path101" />
			</g>
			<path
   class="st0"
   d="m 395.2,310.2 c -0.6,-1.2 -4.6,-9.2 -4.9,-9.7 l -0.9,1.2 c 0.5,1 1.2,2.6 1.8,4.1 0.4,1 0.4,2.1 0.1,3.2 -0.5,2 -2.3,3.4 -4.1,4.3 -0.2,-0.4 -0.3,-0.6 -0.7,-1.3 4,-2.8 3.2,-6 2.2,-7.3 -2.8,1.4 -4.8,2.3 -8,4.2 -1.8,0.9 -1.1,2 -0.4,3.5 0.6,1.4 2.8,5.8 3.4,7 0.9,-0.5 7.6,-4 9.9,-5.3 0.9,-0.5 1.9,-1 2.2,-1.8 0.2,-0.6 -0.2,-1.3 -0.6,-2.1 z"
   id="path102" />
		</g>
	</g>
</g>
</svg>
