<?xml version="1.0" encoding="UTF-8"?><svg id="Layer_1" xmlns="http://www.w3.org/2000/svg" viewBox="0 0 471.52 50.35"><defs><style>.cls-1{fill:#fff;}</style></defs><rect class="cls-1" x="366.92" y="24.25" width="49.5" height="1" transform="translate(365.23 416.31) rotate(-89.75)"/><path class="cls-1" d="m449.12,16.35c-.5-.6-1.5-1.5-2.1-2.2-.9-.9-1.1-1.2-1.1-2.6v-6.5c0-.9-1.4-.8-1.4,0,0,0-.2,11.2-.1,12.2.1.9-.4,1.7,1.2,2.6,1.6,1.1,4.1,1.8,4.1,1.8,0,0,0-2.5.1-3.4,0-.8-.2-1.2-.7-1.9m-.7,3.6h0c-2.4-1-2.7-.8-2.5-4.4,2.8,1.7,2.6,2.3,2.5,4.4"/><path class="cls-1" d="m451.12,18.35v3.4s2.5-.7,4.1-1.7c1.5-1,1.1-1.7,1.2-2.6.1-.9.1-12.2.1-12.2,0-.8-1.4-1-1.4,0v6.5c0,1.5-.3,1.8-1.1,2.6-.5.5-1.7,1.5-2.2,2.1-.5.6-.7,1-.7,1.9m3.9-2.8c.3,3.5-.1,3.4-2.5,4.4h0c-.1-2-.3-2.7,2.5-4.4"/><path class="cls-1" d="m452.32,9.85c-.8-1.5,0,0-1.1-1.9V.85c0-1.1-1.4-1-1.4,0v7.1s-1.2,2-1.5,2.8c-.4.8-.8,1.7.4,3.1.1.1.3.4,1.9,1.9h0l1.5-1.5c1.7-1.8,1-3,.2-4.4m-1.8,4.2c-2.7-1.5-.7-3.5,0-4.7l.1.1c2,2.9,1.4,3.4-.1,4.6"/><path class="cls-1" d="m449.62,25.15c-.1-1.4-.5-2.6-3.4-3.7-2.4-.9-5.8-1.1-8.3-1.5-2.5-.5-6.5-1.1-8.5-3.1,1.5,5.1,5.4,7.3,9.3,8.1,4.5,1,8.4,1.4,10.7,3.1l.3.2c-.2-1.3,0-1.8-.1-3.1m-1.2.6c-2.1-.8-3.5-1-7.3-1.8s-6.1-1.5-8.1-3.6c3.3,1.3,8.5,1.7,11.5,2.4,2.8.5,3.6,1.3,3.9,3h0Z"/><path class="cls-1" d="m451.12,28.15l.3-.2c2.5-1.6,6.4-2,10.8-3,3.9-.8,7.7-2.9,9.3-8-2.1,1.9-6.2,2.6-8.6,3-2.5.4-5.8.5-8.3,1.5-2.8,1.1-3.4,2.3-3.5,3.6,0,1.4.2,1.9,0,3.1m1.3-2.4c.3-1.7,1.1-2.5,4-3.1s8.2-1,11.5-2.3c-2.1,2.2-4.4,2.8-8.2,3.5-3.8.9-5.2,1.1-7.3,1.9h0Z"/><path class="cls-1" d="m449.42,31.55c0-2.7-1.5-3.5-3.9-4.2-2.4-.6-5.5-1.1-8.4-1.9-2.7-.8-4.3-1.4-6.2-3.4.4,4,3.2,6.8,6.5,8,3.5,1.2,3.3,1,5.1,1.5,1.8.5,2.2,1.2,2.2,2.3v2.4h4.5c.4-5.3.2-2,.2-4.7m-1.3,3.2h-1.9s0-.8-.1-2.1c-.2-1.7-2.2-1.9-5.5-2.9-2.3-.6-5.3-1.5-6.6-3.8.8.4,2.5,1.1,5.2,1.6,2.5.5,4,.8,6.4,1.4,2.3.5,2.6,1.8,2.6,3.4v2.4h-.1Z"/><path class="cls-1" d="m451.22,36.25h4.5v-2.4c0-1.2.4-1.8,2.2-2.3,1.8-.5,1.6-.2,5.1-1.4s6.2-4,6.6-7.9c-1.9,2-3.5,2.5-6.2,3.4-2.7.8-6,1.3-8.4,1.8-2.4.6-3.9,1.4-3.9,4.1.1,2.7,0-.6.1,4.7m1.4-4c0-1.5.5-2.9,2.7-3.4,2.4-.5,3.8-.7,6.4-1.3,2.6-.5,4.4-1.3,5.2-1.5-1.4,2.3-4.4,3.1-6.7,3.7-3.4.9-5.5,1.1-5.5,2.8-.1,1.4-.1,2.1-.1,2.1h-1.9v-2.4h-.1Z"/><path class="cls-1" d="m440.12,49.05c-.6.1-1.3.3-1.8.3-2.6,0-4.5-1.4-4.4-4,0-2.7,1.7-4.3,4.5-4.3.5,0,1.3.1,1.8.4l-.1,1.4c-.6-.4-1.2-.5-1.7-.5-1.6,0-2.7,1.3-2.7,2.9s1,2.9,2.7,2.9c.6,0,1.4-.1,1.7-.4v1.3Z"/><path class="cls-1" d="m447.62,42.65c-.6-.3-1.5-.5-2.1-.5-1.9,0-2.9,1.3-2.9,2.9s1,2.9,2.7,2.9c.5,0,.8,0,1.1-.1v-2h-1.7v-1.3h3.3v4.4c-.8.3-1.7.4-2.6.4-2.6,0-4.5-1.4-4.4-4,0-2.7,1.7-4.3,4.5-4.3.9,0,1.6.1,2.4.4l-.3,1.2Z"/><rect class="cls-1" x="446.31" y="44.22" width="8.1" height="1.6" transform="translate(403.17 495.16) rotate(-89.72)"/><path class="cls-1" d="m457.22,46.05h-2.4l1.2-3.3h0l1.2,3.3Zm-5.2,3.1h1.6l.7-1.8h3.3l.6,1.8h1.8l-3.1-8.1h-1.8l-3.1,8.1Z"/><path class="cls-1" d="m462.72,42.35h.5c.8,0,1.7.1,1.7,1.1s-.9,1.1-1.7,1.1h-.5v-2.2Zm-1.7,6.9h1.6v-3.4h.5c.6,0,.9.3,1.1.8l1,2.5h1.8l-1.3-3.2c-.2-.4-.5-.8-.8-.8h0c1-.1,1.6-.9,1.6-1.8,0-2.3-2.1-2.2-3.8-2.2h-1.6l-.1,8.1Z"/><path class="cls-1" d="m75.32,46.85c-3.7,2.2-8,2.9-12.3,2.9-5.5,0-11.1-1.3-15.2-4.9-4.2-3.6-6-8.8-6-14.1,0-11.9,10-17.9,21.4-17.9,4.4,0,7.9.6,12.2,1.9.4.1,1,.3.9,1-.3,1.7-.7,5.7-.9,8h-2.1c0-1.5-.1-2.9-.3-4.5-2.6-2.6-6-3.6-9.6-3.6-4,0-7.8,1.4-10.4,4.4-2.4,2.6-3.2,6.5-3.2,9.9,0,4.3,1.1,8.5,4.2,11.8,3.3,3.4,6.8,4.5,11.5,4.5,3.2,0,7.5-1.1,10.2-2.6l.6.6-1,2.6"/><path class="cls-1" d="m89.12,19.65c-.1-3.7-.3-4.2-4.6-4v-2.2c3.5.2,6.3.3,8.4.3s4.8-.1,8.3-.3v2.2c-4.4-.2-4.6.3-4.6,4v23.3c0,3.7.2,4.2,4.6,4v2.2c-3.5-.2-6.2-.3-8.3-.3s-4.8.1-8.4.3v-2.2c4.3.1,4.5-.3,4.6-4v-23.3"/><path class="cls-1" d="m147.62,20.45l-5.8,11.3-7.9,16.4-.6,1.2h-1.8c-.1-.5-1.2-2.9-1.9-4.3l-12.3-24.7v22.5c0,3.7.2,4.2,4.6,4v2.2c-2.5-.2-4.5-.3-6-.3s-3.6.1-6.2.3v-2.2c4.4.2,4.6-.3,4.6-4v-23.2c0-3.7-.2-4.2-4.6-4v-2.2c3.2.2,5.1.3,6.7.3s3.5-.1,6.2-.3c1,2.2,2.8,6.2,4,8.5l8.5,17.1c.9-1.5,1.6-3,2.4-4.6,3.9-8.1,8.6-17.8,10.1-21,2.6.2,4.6.3,6.2.3s3.6-.1,6.2-.3v2.2c-4.3-.2-4.6.3-4.6,4v23.3c0,3.7.2,4.2,4.6,4v2.2c-3.5-.2-6.2-.3-8.3-.3s-4.8.1-8.4.3v-2.2c4.3.1,4.5-.3,4.6-4l-.3-22.5"/><path class="cls-1" d="m205.82,20.45l-5.8,11.3-7.9,16.4-.6,1.2h-1.8c-.1-.5-1.2-2.9-1.9-4.3l-12.3-24.7v22.5c0,3.7.2,4.2,4.6,4v2.2c-2.5-.2-4.5-.3-6-.3s-3.6.1-6.2.3v-2.2c4.3.2,4.6-.3,4.6-4v-23.2c0-3.7-.2-4.2-4.6-4v-2.2c3.2.2,5.1.3,6.7.3s3.5-.1,6.2-.3c1,2.2,2.8,6.2,4,8.5l8.5,17.1c.8-1.5,1.6-3,2.4-4.6,3.9-8.1,8.6-17.8,10.1-21,2.6.2,4.6.3,6.2.3s3.5-.1,6.2-.3v2.2c-4.3-.2-4.5.3-4.5,4v23.3c0,3.7.2,4.2,4.5,4v2.2c-3.5-.2-6.2-.3-8.3-.3s-4.8.1-8.4.3v-2.2c4.3.1,4.5-.3,4.6-4l-.3-22.5"/><path class="cls-1" d="m245.22,30.45c4.2-6.7,8-12.4,10.1-16.7h4.1v1l-2.2,3-5.7,8.4-2.4,3.7-1.7,3.3c-.3.7-.3,1.6-.3,2.4v7.4c0,3.7.2,4.2,4.6,4v2.2c-3.5-.2-6.2-.3-8.3-.3s-4.8.1-8.4.3v-2.2c4.3.1,4.5-.3,4.6-4v-6.5c0-1.1-.2-2.2-.5-2.8-.5-1.2-1.2-2.2-1.9-3.4l-5.4-8.5c-.8-1.1-1.9-2.5-2.8-3.5-1.2-1.3-2.8-1.7-4.2-1.7v-1.9l8.5-1.9c2.9,1.6,4.5,4.3,6.1,7l5.8,10.7"/><path class="cls-1" d="m286.12,42.85c0,3.7.2,4.2,4.6,4v2.2c-3.6-.2-6.2-.3-8.3-.3s-4.8.1-8.4.3v-2.1c4.3.1,4.5-.3,4.6-4.1v-26h-7.9c-1.3.1-1.8.5-2.4,1.7-.1.9-.2,2.2-.3,3.5h-2.2c.1-2.5-.2-5.9-.2-8.6,7.1.2,12.5.3,16.8.3s9.6-.1,16.9-.3c-.2,2.3-.4,5.5-.7,8.6h-2.1c0-.7,0-1.5-.1-2.2-.4-2.6.2-2.9-2.8-3h-7.5v26"/><path class="cls-1" d="m24.42,18.05c.3.1.7.3.9.6.1.2.2.4.3.6.1.5.1.9-.2,1.3-.3.4-.6.4-1,.4s-.7-.1-1-.2c-.3-.1-.5-.2-.7-.4-.2-.1-.3-.4-.4-.8-.1-.4,0-.7,0-1,.1-.3.1-.5.4-.6.2-.2.5-.2.8-.2.2,0,.3,0,.5.1l.4.2Z"/><path class="cls-1" d="m19.12,13.35c0,.3.1.7.1,1.1.1.7.2,1,.2,1.3,0,.2,0,.4-.2.5l-.1.1c-.1-.1-.3-.2-.3-.5,0-.4-.1-.8-.2-1.2v-1.1c0-.2.1-.4.1-.5,0,0,0-.1.1,0,.2.1.2.2.3.3"/><path class="cls-1" d="m19.12,9.55v.4c0,.3,0,.8.2,1.3.2.7.2,1.1.1,1.4,0,.1-.1.1-.2.2q-.2.1-.4,0c-.1-.2-.2-.5-.3-.9l-.1-.6c-.1-.6,0-1.1,0-1.5,0-.3.1-.4.2-.6,0,0,.1-.1.2,0,.3,0,.3.1.3.3"/><path class="cls-1" d="m19.02,16.65c.1.3.1.7.1,1.1.1.7.2,1,.2,1.3,0,.2,0,.4-.2.5q-.1.1-.2,0c-.1,0-.3-.1-.3-.5s-.1-.8-.1-1.2v-1.1c0-.2,0-.4.1-.5,0,0,0-.1.1,0,.3.2.3.3.3.4"/><path class="cls-1" d="m24.42,14.85c.3.1.7.3.9.6.1.2.2.4.3.6.1.5.1.9-.2,1.3-.3.4-.6.4-1,.4s-.7-.1-1-.2c-.3-.1-.5-.2-.7-.4-.2-.1-.3-.4-.4-.8-.1-.4,0-.7,0-1,.1-.3.1-.5.4-.6.2-.2.5-.2.8-.2.2,0,.3,0,.5.1l.4.2Z"/><path class="cls-1" d="m24.42,24.55c.3.1.7.3.9.6.1.2.2.4.3.6.1.5.1.9-.2,1.3-.3.4-.6.4-1,.4s-.7-.1-1-.2c-.3-.1-.5-.2-.7-.4-.2-.1-.3-.4-.4-.8-.1-.4,0-.7,0-1,.1-.3.1-.5.4-.6.2-.2.5-.2.8-.2.2,0,.3,0,.5.1l.4.2Z"/><path class="cls-1" d="m24.42,21.35c.3.1.7.3.9.6.1.1.2.4.3.6.1.5.1.9-.2,1.3-.3.4-.6.4-1,.4s-.7-.1-1-.2c-.3-.1-.5-.2-.7-.4-.2-.1-.3-.4-.4-.8-.1-.4,0-.7,0-1,.1-.3.1-.5.4-.6.2-.2.5-.2.8-.2.2,0,.3,0,.5.1l.4.2Z"/><path class="cls-1" d="m24.42,31.15c.3.1.7.3.9.6.1.1.2.4.3.6.1.5.1.9-.2,1.3s-.6.4-1,.4-.7-.1-1-.2-.5-.2-.7-.4c-.2-.1-.3-.4-.4-.8-.1-.4,0-.7,0-1,.1-.3.1-.5.4-.6.2-.2.5-.2.8-.2.2,0,.3,0,.5.1l.4.2Z"/><path class="cls-1" d="m24.42,27.85c.3.1.7.3.9.6.1.2.2.4.3.6.1.5.1.9-.2,1.3-.3.4-.6.4-1,.4s-.7-.1-1-.2c-.3-.1-.5-.2-.7-.4-.2-.1-.3-.4-.4-.8-.1-.4,0-.7,0-1,.1-.3.1-.5.4-.6.2-.2.5-.2.8-.2.2,0,.3,0,.5.1l.4.2Z"/><path class="cls-1" d="m24.42,37.65c.3.1.7.3.9.6l.3.6c.1.5.1.9-.2,1.3s-.6.4-1,.4-.7-.1-1-.2-.5-.3-.7-.4-.3-.4-.4-.8c-.1-.4,0-.7,0-1,.1-.3.1-.5.4-.6.2-.2.5-.2.8-.2.2,0,.3,0,.5.1l.4.2Z"/><path class="cls-1" d="m24.42,34.35c.3.1.7.3.9.6.1.2.2.4.3.6.1.5.1.9-.2,1.3s-.6.4-1,.4-.7-.1-1-.2-.5-.2-.7-.4c-.2-.1-.3-.4-.4-.8-.1-.4,0-.7,0-1,.1-.3.1-.4.4-.6.2-.2.5-.2.8-.2.2,0,.3,0,.5.1l.4.2Z"/><path class="cls-1" d="m24.42,44.15c.3.1.7.3.9.6l.3.6c.1.5.1.9-.2,1.3s-.6.5-1,.4c-.4,0-.7-.1-1-.2s-.5-.2-.7-.4c-.2-.1-.3-.4-.4-.8-.1-.4,0-.7,0-1,.1-.3.1-.5.4-.6.3-.2.5-.2.8-.2.2,0,.3,0,.5.1l.4.2Z"/><path class="cls-1" d="m24.42,40.85c.3.1.7.3.9.6.1.1.2.4.3.6.1.5.1.9-.2,1.3s-.6.4-1,.4-.7-.1-1-.2-.5-.2-.7-.4c-.2-.1-.3-.4-.4-.8-.1-.4,0-.7,0-1,.1-.3.1-.5.4-.6.2-.2.5-.2.8-.2.2,0,.3,0,.5.1l.4.2Z"/><path class="cls-1" d="m24.42,47.35c.3.1.7.3.9.6l.3.6c.1.5.1.9-.2,1.3s-.6.4-1,.4-.7-.1-1-.2-.5-.2-.7-.4c-.2-.1-.3-.4-.4-.8-.1-.4,0-.7,0-1,.1-.3.1-.5.4-.6.2-.2.5-.2.8-.2.2,0,.3,0,.5.1h.1l.3.2Z"/><path class="cls-1" d="m22.02,18.65c-.1.3-.2.4-.5.5s-.4.1-.7-.1c-.3-.1-.4-.3-.6-.5-.1-.2-.4-.4-.5-.8-.2-.4-.3-.8-.2-1.3.1-.4.3-.6.6-.6s.7.1.8.2l.6.6c.3.3.6,1,.6,1.5-.1.2-.1.3-.1.5"/><path class="cls-1" d="m22.02,21.95c-.1.3-.2.4-.5.5s-.4,0-.7-.1-.4-.3-.6-.5c-.1-.2-.4-.4-.5-.8-.2-.4-.3-.8-.2-1.3.1-.4.3-.6.6-.6.3-.1.7.1.8.2l.6.6c.3.3.6,1,.6,1.5-.1.2-.1.3-.1.5"/><path class="cls-1" d="m22.02,25.25c-.1.3-.2.4-.5.5s-.4.1-.7-.1c-.3-.1-.4-.3-.6-.5-.1-.2-.4-.4-.5-.8-.2-.4-.3-.8-.2-1.3.1-.4.3-.6.6-.7.3-.1.7.1.8.2l.6.6c.1.2.3.4.4.7.1.3.2.6.2.8-.1.3-.1.4-.1.6"/><path class="cls-1" d="m22.02,28.55c-.1.3-.2.4-.5.5s-.4.1-.7-.1c-.3-.1-.4-.3-.6-.5-.1-.2-.4-.4-.5-.8-.2-.4-.3-.8-.2-1.3.1-.4.3-.6.6-.7.3-.1.7,0,.8.2l.6.6c.3.3.6,1,.6,1.5-.1.3-.1.4-.1.6"/><path class="cls-1" d="m22.02,31.85c-.1.3-.2.4-.5.5s-.4.1-.7-.1c-.3-.1-.4-.3-.6-.5-.1-.2-.4-.4-.5-.8-.2-.4-.3-.8-.2-1.2s.3-.6.6-.6c.3-.1.7.1.8.2l.6.6c.3.3.6,1,.6,1.5-.1.1-.1.3-.1.4"/><path class="cls-1" d="m22.02,35.15c-.1.3-.2.4-.5.5s-.4.1-.7-.1c-.3-.1-.4-.3-.6-.5-.1-.2-.4-.4-.5-.8-.2-.4-.3-.8-.2-1.2s.3-.6.6-.6c.3-.1.7.1.8.2l.6.6c.3.3.6,1,.6,1.5-.1.1-.1.3-.1.4"/><path class="cls-1" d="m22.02,38.45c-.1.3-.2.4-.5.5s-.4,0-.7-.1-.4-.3-.6-.5c-.1-.2-.4-.4-.5-.8-.2-.4-.3-.8-.2-1.3.1-.4.3-.6.6-.6.3-.1.7.1.8.2l.6.6c.3.3.6,1,.6,1.5-.1.2-.1.4-.1.5"/><path class="cls-1" d="m22.02,41.75c-.1.3-.2.4-.5.5s-.4.1-.7-.1c-.3-.1-.4-.3-.6-.5-.1-.2-.4-.4-.5-.8-.2-.4-.3-.8-.2-1.3.1-.4.3-.6.6-.6.3-.1.7.1.8.2.2.2.4.4.6.6.1.2.3.4.4.7.1.3.2.6.2.8-.1.2-.1.4-.1.5"/><path class="cls-1" d="m22.02,45.05c-.1.3-.2.4-.5.5s-.4,0-.7-.1-.4-.3-.6-.5c-.1-.2-.4-.4-.5-.8-.2-.4-.3-.8-.2-1.3.1-.4.3-.6.6-.7s.7.1.8.2c.2.2.4.4.6.6.1.2.3.4.4.7.1.3.2.6.2.8-.1.3-.1.5-.1.6"/><path class="cls-1" d="m21.92,48.25c-.1.3-.2.4-.5.5s-.4,0-.7-.1-.4-.3-.6-.5c-.1-.2-.4-.4-.6-.8-.2-.4-.3-.8-.2-1.3.1-.4.3-.6.6-.6.3-.1.7.1.8.2.2.2.4.4.6.6.2.2.3.4.4.7.1.3.2.6.2.8.1.2.1.3,0,.5"/><path class="cls-1" d="m19.02,19.95c.1.3.1.7.1,1.1.1.7.2,1,.2,1.3,0,.2,0,.4-.2.5q0,.1-.1.1c-.1,0-.3-.1-.3-.5s-.1-.8-.1-1.2v-1.1c0-.2,0-.4.1-.5,0,0,0-.1.1,0,.2.1.2.2.2.3"/><path class="cls-1" d="m19.02,23.25c.1.3.1.7.1,1.1.1.7.2,1,.2,1.3,0,.2,0,.4-.2.5q-.1.1-.2,0c-.1,0-.3-.1-.3-.5s-.1-.8-.2-1.2v-1.1c0-.2,0-.4.1-.5,0,0,0-.1.1,0,.3.2.4.3.4.4"/><path class="cls-1" d="m19.02,26.45c.1.3.1.7.1,1.1.1.7.2,1,.2,1.3,0,.2,0,.4-.2.5q-.1.1-.2.1c-.1-.1-.3-.2-.3-.5,0-.4-.1-.8-.2-1.2v-1.1c0-.2,0-.4.1-.5,0,0,0-.1.1,0,.3.2.4.2.4.3"/><path class="cls-1" d="m19.02,29.75c.1.3.1.7.1,1.1.1.7.2,1,.2,1.3,0,.2,0,.4-.2.5q-.1.1-.2.1c-.1-.1-.3-.1-.3-.5s-.1-.8-.1-1.2v-1.1c0-.2,0-.4.1-.5,0,0,0-.1.1,0,.3.1.3.2.3.3"/><path class="cls-1" d="m19.02,33.05c.1.3.1.7.1,1.1.1.7.2,1,.2,1.3,0,.2,0,.4-.2.5q-.1.1-.2.1c-.1-.1-.3-.1-.3-.5s-.1-.8-.2-1.2v-1.1c0-.2,0-.4.1-.5,0,0,0-.1.1,0,.3.1.4.2.4.3"/><path class="cls-1" d="m19.12,36.35c.1.3.1.7.1,1.1.1.7.2,1,.2,1.3,0,.2,0,.4-.2.5q-.1.1-.2,0c-.1-.1-.3-.2-.3-.5,0-.4-.1-.8-.1-1.2v-1.1c0-.2.1-.4.1-.5,0,0,0-.1.2,0,.1.2.2.3.2.4"/><path class="cls-1" d="m19.02,39.75c.1.3.1.7.1,1.1.1.7.2,1.1.2,1.3s0,.4-.2.5q-.1.1-.2,0c-.1,0-.3-.1-.3-.5s-.1-.8-.1-1.2v-1.1c0-.2,0-.4.1-.5,0,0,0-.1.1,0,.3.2.3.3.3.4"/><path class="cls-1" d="m19.02,43.05c.1.3.1.7.1,1.1.1.7.2,1,.2,1.3,0,.2,0,.4-.2.5q-.1.1-.2,0c-.1,0-.3-.1-.3-.5s-.1-.8-.1-1.2v-1.1c0-.2,0-.4.1-.5,0,0,0-.1.1,0,.3.2.3.3.3.4"/><path class="cls-1" d="m22.02,15.45c-.1.3-.2.4-.5.5-.3,0-.4,0-.7-.1s-.4-.3-.6-.5c-.1-.2-.4-.4-.5-.8-.2-.4-.3-.8-.2-1.3.1-.4.3-.6.6-.6s.7.1.8.2l.6.6c.1.2.3.4.4.7.1.3.2.6.2.8-.1.2-.1.3-.1.5"/><path class="cls-1" d="m27.52,17.95c.3-.1.7-.1.9-.1s.5.2.6.4.2.6.2.9v.5c-.1.4-.2.6-.4.8s-.4.3-.7.4-.6.2-1,.2-.7,0-1-.4-.3-.7-.2-1.3c.1-.5.4-.8.7-1,.2-.1.3-.2.5-.2l.4-.2Z"/><path class="cls-1" d="m32.62,12.95c.3-.1.3.1.4.6v1.1c0,.4-.1.8-.1,1.2s-.2.5-.4.6-.4-.1-.5-.4c-.1-.2,0-.5,0-.7.1-.3.1-.6.2-.9,0-.4.1-.8.1-1.1.1-.3.1-.4.3-.4"/><path class="cls-1" d="m32.62,9.35h.2c.1.1.1.3.2.6.1.4.1.8,0,1.5l-.1.6c0,.4-.1.7-.3.9-.1.1-.2.2-.3,0-.2-.1-.2-.3-.2-.5s0-.6.1-1.1.2-1,.2-1.3v-.4c0-.2,0-.3.2-.3"/><path class="cls-1" d="m32.62,16.35q.1,0,0,0c.1.1.2.2.2.5v1.1c0,.4-.1.8-.2,1.2,0,.3-.2.4-.3.5h-.2c-.2-.1-.2-.3-.2-.5.1-.5.2-.9.2-1.3.1-.4.1-.8.1-1.1.2-.3.3-.3.4-.4"/><path class="cls-1" d="m27.52,14.65c.3-.1.7-.1.9-.1s.5.2.6.4.2.6.2.8v.5c-.1.4-.2.6-.4.8s-.4.3-.7.4c-.3.1-.6.2-1,.2s-.7,0-1-.4-.3-.7-.2-1.3.4-.8.7-1c.2-.1.3-.2.5-.2l.4-.1Z"/><path class="cls-1" d="m27.52,24.45c.3-.1.7-.1.9-.1s.5.2.6.4.2.6.2.9v.5c-.1.4-.2.6-.4.8s-.4.3-.7.4c-.3.1-.6.2-1,.2s-.7,0-1-.4-.3-.7-.2-1.3c.1-.5.4-.8.7-1,.2-.1.3-.2.5-.2l.4-.2Z"/><path class="cls-1" d="m27.52,21.15c.3-.1.7-.1.9-.1s.5.2.6.4.2.6.2.9v.5c-.1.4-.2.6-.4.8s-.4.3-.7.4c-.3.1-.6.2-1,.2s-.7,0-1-.4-.3-.7-.2-1.3.4-.8.7-1c.2-.1.3-.2.5-.2l.4-.2h0Z"/><path class="cls-1" d="m27.52,30.95c.3-.1.7-.1.9-.1s.5.2.6.4.2.6.2.9v.5c-.1.4-.2.6-.4.8s-.4.3-.7.4-.6.2-1,.2-.7,0-1-.4-.3-.7-.2-1.3.4-.8.7-1c.2-.1.3-.2.5-.2l.4-.2Z"/><path class="cls-1" d="m27.52,27.65c.3-.1.7-.1.9-.1s.5.2.6.4.2.6.2.9v.5c-.1.4-.2.6-.4.8s-.4.3-.7.4c-.3.1-.6.2-1,.2s-.7,0-1-.4-.3-.7-.2-1.3.4-.8.7-1c.2-.1.3-.2.5-.2l.4-.2Z"/><path class="cls-1" d="m27.52,37.45c.3-.1.7-.1.9-.1s.5.2.6.4c.1.2.2.6.2.9v.5c-.1.4-.2.6-.4.8-.2.1-.4.3-.7.4s-.6.2-1,.2-.7,0-1-.4-.3-.7-.2-1.3c.1-.6.4-.8.7-1,.2-.1.3-.2.5-.2h0l.4-.2Z"/><path class="cls-1" d="m27.52,34.15c.3-.1.7-.1.9-.1s.5.2.6.4.2.6.2.9v.5c-.1.4-.2.6-.4.8-.2.1-.4.3-.7.4s-.6.2-1,.2-.7,0-1-.4-.3-.7-.2-1.3c.1-.5.4-.8.7-1,.2-.1.3-.2.5-.2l.4-.2Z"/><path class="cls-1" d="m27.52,43.95c.3-.1.7-.1.9-.1s.5.2.6.4c.1.2.2.6.2.9v.5c-.1.4-.2.6-.4.8-.2.2-.4.3-.7.4s-.6.2-1,.2-.7,0-1-.4-.3-.8-.2-1.3c.1-.6.4-.8.7-1,.2-.1.3-.2.5-.2l.4-.2Z"/><path class="cls-1" d="m27.52,40.75c.3-.1.7-.1.9-.1s.5.2.6.4c.1.2.2.6.2.9v.5c-.1.4-.2.6-.4.8-.2.2-.4.3-.7.4s-.6.2-1,.2-.7,0-1-.4-.3-.7-.2-1.3c.1-.5.4-.8.7-1,.2-.1.3-.2.5-.2h.1l.3-.2Z"/><path class="cls-1" d="m27.52,47.25c.3-.1.7-.1.9-.1s.5.2.6.4c.1.2.2.6.2.9v.5c-.1.4-.2.6-.4.8-.2.2-.4.3-.7.4s-.6.2-1,.2-.7,0-1-.4-.3-.7-.2-1.3c.1-.5.4-.8.7-1,.2-.1.3-.2.5-.2l.4-.2Z"/><path class="cls-1" d="m29.42,18.15c0-.4.2-.9.4-1.2.1-.3.3-.4.5-.6.2-.2.4-.4.7-.5s.6,0,.8.2.3.6.2,1.1c-.1.4-.3.8-.5,1.1-.3.3-.4.6-.9.8-.2.1-.4.1-.7.1s-.4-.2-.5-.5v-.5"/><path class="cls-1" d="m29.42,21.45c0-.4.2-.9.4-1.2.1-.3.3-.4.5-.6.2-.2.4-.4.7-.5s.6,0,.8.2.3.6.2,1.1c-.1.4-.3.9-.5,1.1-.3.4-.4.6-.9.8-.2.1-.4.1-.7.1s-.4-.2-.5-.5v-.5"/><path class="cls-1" d="m29.42,24.75c0-.4.2-.9.4-1.2.1-.3.3-.4.5-.6.2-.2.4-.4.7-.5s.6,0,.8.2.3.6.2,1.1c-.1.4-.3.9-.5,1.1-.3.4-.4.6-.9.8-.2.1-.4.1-.7.1s-.4-.2-.5-.5v-.5"/><path class="cls-1" d="m29.42,28.05c0-.4.2-.9.4-1.2.1-.3.3-.4.5-.6.2-.2.4-.4.7-.5s.6,0,.8.2.3.6.2,1.1c-.1.4-.3.9-.5,1.1-.3.4-.4.6-.9.8-.2.1-.4.1-.7.1-.3-.1-.4-.2-.5-.5v-.5"/><path class="cls-1" d="m29.42,31.35c0-.4.2-.9.4-1.2.1-.3.3-.4.5-.6.2-.2.4-.4.7-.5s.6,0,.8.2.3.6.2,1.1c-.1.4-.3.9-.5,1.1-.3.4-.4.6-.9.8-.2.1-.4.1-.7.1s-.4-.2-.5-.5v-.5"/><path class="cls-1" d="m29.42,34.65c0-.4.2-.8.4-1.2.1-.3.3-.4.5-.6.2-.2.4-.4.7-.5s.6,0,.8.2.3.6.2,1.1c-.1.4-.3.9-.5,1.1-.3.4-.4.6-.9.8-.2.1-.4.1-.7.1-.3-.1-.4-.2-.5-.5v-.5"/><path class="cls-1" d="m29.42,37.95c0-.4.2-.8.4-1.2.1-.3.3-.4.5-.6s.4-.4.7-.5.6,0,.8.2.3.6.2,1.1c-.1.4-.3.9-.5,1.1-.3.4-.4.6-.9.8-.2.1-.4.1-.6.1-.3-.1-.4-.2-.5-.5-.1-.2-.1-.3-.1-.5"/><path class="cls-1" d="m29.42,41.35c0-.4.2-.9.4-1.2.1-.3.3-.4.5-.6s.4-.4.7-.5.6,0,.8.2.3.7.2,1.1-.3.9-.5,1.1c-.3.4-.4.6-.9.8-.2.1-.4.1-.7.1-.3-.1-.4-.2-.5-.5v-.5"/><path class="cls-1" d="m29.42,44.65c0-.4.2-.8.4-1.2.1-.3.3-.4.5-.6s.4-.4.7-.5.6,0,.8.2.3.7.2,1.1-.3.9-.5,1.1c-.3.4-.4.6-.9.8-.2.1-.4.1-.7.1s-.4-.2-.5-.5v-.5"/><path class="cls-1" d="m29.42,47.75c0-.4.2-.8.4-1.2.1-.2.3-.4.5-.6s.4-.4.7-.5.6,0,.8.2.3.7.2,1.1-.3.9-.5,1.1c-.3.4-.5.6-.9.8-.3.1-.4.2-.7.1s-.4-.2-.5-.5c.1-.2,0-.4,0-.5"/><path class="cls-1" d="m32.62,19.65q.1,0,0,0c.1.1.2.2.2.5v1.1c0,.4-.1.8-.1,1.2,0,.3-.2.4-.3.5h-.2c-.2-.1-.2-.3-.2-.5.1-.5.2-.9.2-1.3s.1-.8.1-1.1c.1-.3.2-.3.3-.4"/><path class="cls-1" d="m32.62,23.05q.1,0,0,0c.1.1.2.2.2.5v1.1c0,.4-.1.8-.1,1.2,0,.3-.2.4-.3.5h-.2c-.2-.1-.2-.3-.2-.5.1-.5.2-.9.2-1.3s.1-.8.1-1.1c.1-.3.2-.4.3-.4"/><path class="cls-1" d="m32.62,26.25q.1,0,0,0c.1.1.2.2.2.5v1.1c0,.4-.1.8-.2,1.2,0,.3-.2.4-.3.5h-.2c-.2-.1-.2-.3-.2-.5.1-.5.2-.9.2-1.3s.1-.8.1-1.1c.2-.3.3-.4.4-.4"/><path class="cls-1" d="m32.62,29.55q.1,0,0,0c.1.1.2.2.2.5v1.1c0,.4-.1.8-.2,1.2,0,.3-.2.4-.3.5h-.2c-.2-.1-.2-.3-.2-.5.1-.5.2-.9.2-1.3.1-.4.1-.8.1-1.1.2-.3.3-.3.4-.4"/><path class="cls-1" d="m32.62,32.75q.1,0,0,0c.1.1.2.2.2.5v1.1c0,.4-.1.8-.2,1.2,0,.3-.2.4-.3.5h-.2c-.2-.1-.2-.3-.2-.5.1-.5.2-.9.2-1.3.1-.4.1-.8.1-1.1.2-.3.3-.3.4-.4"/><path class="cls-1" d="m32.62,36.15q.1,0,0,0c.1.1.2.3.2.5v1.1c0,.4-.1.8-.2,1.2,0,.3-.2.4-.3.5h-.2c-.2-.1-.2-.3-.2-.5.1-.5.2-.9.2-1.3.1-.4.1-.8.1-1.1.2-.3.3-.4.4-.4"/><path class="cls-1" d="m32.62,39.45q.1,0,0,0c.1.1.2.2.2.5v1.1c0,.4-.1.8-.2,1.2,0,.3-.2.4-.3.5,0,0-.1,0-.2-.1-.2-.1-.2-.3-.2-.5.1-.5.2-.9.2-1.3.1-.4.1-.8.1-1.1.2-.2.3-.3.4-.3"/><path class="cls-1" d="m32.62,42.75q.1,0,0,0c.1.1.2.2.2.5v1.1c0,.4-.1.8-.2,1.2,0,.3-.2.4-.3.5h-.2c-.2-.1-.2-.3-.2-.5.1-.5.2-.9.2-1.3.1-.4.1-.8.1-1.1.2-.3.3-.4.4-.4"/><path class="cls-1" d="m29.42,14.95c0-.4.2-.8.4-1.2.1-.3.3-.4.5-.6.2-.2.4-.4.7-.5s.6,0,.8.2.3.6.2,1.1c-.1.4-.3.9-.5,1.1-.3.4-.4.6-.9.8-.2.1-.4.2-.7.1-.3,0-.4-.2-.5-.5v-.5"/><path class="cls-1" d="m22.42,7.45c0,.2-.2.5-.4.6-.5.4-1.5,1-2.5,1.2-.3,0-.6-.3-.7-.5-.4-.7-.4-1.8-.1-2.4.2-.4.5-.9.8-.8,1.1.2,2.1.9,2.5,1.2.3.4.4.5.4.7"/><path class="cls-1" d="m26.82,10.65c.2-.1.5,0,.7.2.6.4,1.4,1.1,1.9,2,.1.2-.1.6-.3.8-.6.6-1.6.9-2.2.9-.5,0-1-.2-1-.6-.1-1.1.2-2.3.4-2.8.2-.3.3-.4.5-.5"/><path class="cls-1" d="m24.72,10.65c.2.1.4.3.5.6.2.7.5,1.7.4,2.8,0,.2-.4.4-.7.5-.8.1-1.8-.2-2.3-.6-.4-.3-.7-.8-.5-1,.6-.9,1.5-1.8,1.9-2,.4-.3.5-.3.7-.3"/><path class="cls-1" d="m23.22,9.35c.1.2.1.5,0,.8-.2.7-.6,1.7-1.3,2.5-.2.2-.6.1-.9,0-.7-.4-1.3-1.2-1.5-1.9-.1-.5-.1-1,.2-1.1,1-.4,2.3-.5,2.7-.5.5,0,.6,0,.8.2"/><path class="cls-1" d="m29.02,7.45c0-.2.2-.5.4-.6.5-.4,1.5-1,2.5-1.2.2,0,.5.3.7.5.4.7.3,1.8.1,2.4-.2.4-.5.9-.8.8-1.1-.2-2.1-.9-2.5-1.3-.3-.3-.4-.3-.4-.6"/><path class="cls-1" d="m26.82,4.35c-.2-.1-.4-.3-.5-.6-.2-.7-.5-1.7-.4-2.8,0-.2.4-.5.7-.5.8-.1,1.8.2,2.3.6.4.3.7.8.5,1-.6.9-1.5,1.8-1.9,2-.4.3-.5.4-.7.3"/><path class="cls-1" d="m24.82,4.35c-.2.1-.5,0-.7-.2-.6-.4-1.4-1.1-1.9-2-.1-.2.1-.6.3-.8.6-.6,1.6-.9,2.2-.9.5,0,1,.2,1,.5.1,1.1-.2,2.3-.4,2.8-.3.5-.3.6-.5.6"/><path class="cls-1" d="m28.42,5.55c-.1-.2-.1-.5,0-.8.2-.7.6-1.7,1.3-2.4.2-.2.6-.1.8,0,.7.4,1.3,1.2,1.5,1.9.1.5.1,1-.2,1.1-1,.4-2.3.5-2.7.5-.4-.1-.6-.1-.7-.3"/><path class="cls-1" d="m28.42,9.45c.1-.2.4-.3.7-.3.7,0,1.8.1,2.7.5.2.1.3.5.2.8-.1.8-.7,1.7-1.3,2-.4.2-.9.4-1.1.1-.7-.8-1.2-2-1.3-2.5,0-.3,0-.5.1-.6"/><path class="cls-1" d="m23.12,5.55c-.1.2-.4.3-.7.3-.7,0-1.8,0-2.7-.5-.2-.1-.3-.6-.3-.8.1-.8.7-1.7,1.3-2,.4-.3.9-.4,1.1-.2.7.8,1.2,2,1.3,2.5.1.4.1.5,0,.7"/><path class="cls-1" d="m25.82,10.65c1.7,0,3.1-1.4,3.1-3.1s-1.4-3.1-3.1-3.1-3.1,1.4-3.1,3.1c0,1.7,1.4,3.1,3.1,3.1"/><path class="cls-1" d="m11.22,22.85V.45h1v22.8s.1,5.1.1,6.5c0,1.5-.3,2.8-.3,2.8,0,0-.3,2-1.4,3,0,0-.7.9-1.6,1.6-.8.7-1,1.2-1.1,1.6s-.2,1.6-.2,1.6c0,0,5.1-5.6,5.3-8.3l.1-.8V.55h1v32.4s-.2,4.4-1.8,8.3c0,0-.7,1.4-1.4,2.5-.9,1.5-3,3.2-3.1,4.5,0,.8-.1,1.5-.1,1.5h-1.3l-.1-3.2s0-1-.2-1.8c-.2-.9-.5-1.4-.8-1.9s-.7-.9-1.1-1.4C-.48,35.15.02,30.65.02,30.35.02,29.55.02,28.55.02,28.75V.35h.9v27.7s-.1,2.2,1.5,3.9c1.1,1.2,1.2,1.1,2.1,2.2.9,1,1.4,2.3,1.4,2.3,0,0,.1,0,0-1.2,0-1.2-1.2-2.1-1.2-2.1-3-2.6-2.9-6.3-2.9-6.3L1.72.35h.9v18.3s0,.9.3,1.8c.3.9.7,1.9,1.4,3.6,1.2,2.8,2.1,4.4,2.1,4.4,0,0-.1-2.3-.4-2.8-.3-.6-.9-1.9-.9-1.9-.7-1.8-.9-2.8-1.1-3.3-.4-1.6-.3-2.4-.3-2.4V.35h.9v11.4c0,2.1.5,2.9.9,3.7.3.8.8,2.2.8,2.2,0,0,.3-.9-.4-3.5-.2-.7-.3-3.2-.3-3.2V.45h.9v7s.3,3,.6,2.2.4-1.7.4-1.7V.55h.9v15.9s-.1,2-.5,3.3c-.5,1.5-.3,2.4-.3,2.4,0,0,.4-.7,1-2.1.7-1.5.8-2.8.8-2.8V.45h.9v22.1c0,1.2-.3,1.9-1.2,4.5-.6,1.8-1,2.2-1.1,2.9-.2.9-.1,1.9-.1,1.9l1.4-2.8c.8-1.7,1-2.4,1.4-3.7,0-.1.5-1.2.5-2.5Z"/><path class="cls-1" d="m334.42,32.55c-1.3-.1-3.2-.3-5-.6-1.2-.2-2.2-.8-3.2-1.8-1.6-1.7-2-4.1-1.8-6.4h1.6c.4,5.4,3.9,6.4,5.8,6.2.2-3.6.5-5.9.5-10.1.2-2.2-1.3-2.2-3.2-2.4-1.7-.2-7.2-.5-8.7-.6-.1,1.1-.4,9.6-.5,12.5,0,1.1-.2,2.4.5,3.1.6.7,1.6.7,2.5.8,1.4.1,11.5.7,12.1.8l-.6-1.5Z"/><path class="cls-1" d="m336.12,25.45c.7-1.1,1.9-2.6,3-4,.8-.9,1.8-1.5,3.1-1.8,2.3-.6,4.6.3,6.4,1.6-.3.5-.4.6-.8,1.4-4.9-2.3-7.5.2-8.3,1.9,3,2,4.8,3.4,8.5,5.5,1.8,1.2,2.5,0,3.7-1.5,1-1.4,4.1-6,4.9-7.2-.9-.6-8.1-5.2-10.6-6.7-1-.6-2-1.4-2.9-1.1-.9.2-1.4,1-1.9,1.8-.8,1.2-6.4,9.6-6.7,10l1.6.1Z"/><path class="cls-1" d="m347.72,39.95c-.6-1.3-5.2-10.3-5.4-10.8l-1,1.4c.6,1.2,1.3,3,2,4.6.4,1.1.4,2.3.1,3.6-.6,2.3-2.5,3.8-4.6,4.8-.3-.5-.4-.6-.8-1.4,4.4-3.1,3.5-6.7,2.4-8.1-3.2,1.6-5.3,2.5-9,4.6-2,1-1.2,2.2-.5,3.9.7,1.6,3.2,6.5,3.9,7.8,1-.5,8.5-4.5,11.1-5.9,1-.6,2.2-1.1,2.4-2,.3-.9-.2-1.7-.6-2.5Z"/></svg>